<?xml version="1.0" encoding="UTF-8"?>
<svg width="1311px" height="218px" viewBox="0 0 1311 218" version="1.1" xmlns="http://www.w3.org/2000/svg" xmlns:xlink="http://www.w3.org/1999/xlink">
    <!-- Generator: Sketch 52.6 (67491) - http://www.bohemiancoding.com/sketch -->
    <title>Artboard@1x</title>
    <desc>Created with Sketch.</desc>
    <g id="Artboard" stroke="none" stroke-width="1" fill="none" fill-rule="evenodd">
        <path d="M61.2079576,169.897518 L63.2201966,167.115304 L50.8171789,155.360037 L41.4055946,160.424058 L40.2732871,160.601379 L31.8980197,159.04056 L31.0870663,158.888441 L30.6907575,158.16983 L25.6260603,148.997124 L25.2199495,148.259657 L25.5517355,147.483051 L28.4740642,140.651418 L29.1796996,139.842963 L39.2184709,133.846085 L35.0839789,117.52531 L24.5489482,117.653662 L23.5115267,117.32137 L17.1275973,112.668861 L16.452006,112.176055 L16.4077417,111.350481 L15.8271918,100.446301 L15.7797365,99.5524355 L16.4848974,98.9927561 L23.4507922,93.4679352 L24.5068685,93.0933399 L34.4246696,92.9665701 L37.8400914,76.1071929 L30.047583,70.5104239 L29.4845916,69.8246142 L25.7119216,61.6823732 L25.3110309,60.8178167 L25.8207251,60.0191906 L31.4794069,51.150247 L31.9438714,50.4221342 L32.801331,50.3492516 L41.2173935,49.6220899 L42.2140198,49.8529613 L50.8079987,54.7372926 L63.1956753,42.7002923 L57.7778453,34.7462917 L57.4724706,33.6521345 L58.0525378,24.9288249 L58.1125932,24.0376486 L58.8805342,23.564174 L68.311886,17.7487409 L69.0282725,17.3063213 L69.8163002,17.5986798 L77.6523038,20.5065562 L78.5062778,21.1853892 L83.9384998,29.4784865 L100.31107,25.6936987 L100.568375,14.9709545 L100.975435,13.8983506 L106.199222,7.64683514 L106.73928,7 L107.568266,7.02221731 L118.595899,7.31282951 L119.455249,7.33504681 L119.958602,8.02545575 L125.037217,15.0038214 L125.368994,15.941736 L125.880448,25.5446542 L141.887522,29.3334099 L147.887342,20.5768154 L148.754792,19.9119276 L156.735951,17.1490376 L157.571573,16.8603274 L158.294775,17.3661277 L167.000691,23.4729683 L167.677993,23.9483449 L167.739357,24.7769274 L168.319457,32.6285562 L168.061971,33.6541021 L162.537441,42.6667613 L174.308313,54.4602157 L184.34445,49.1055744 L185.314174,48.9094062 L193.29386,49.6361007 L194.212529,49.7200838 L194.656809,50.5260063 L200.02531,60.2672538 L200.430561,61.0029828 L200.099765,61.7818018 L197.198448,68.6155009 L196.615239,69.3486884 L187.821858,75.661371 L191.49866,92.4316987 L202.361337,92.9504933 L203.364934,93.3376073 L209.313617,98.1344713 L210,98.6895514 L209.965636,99.5547392 L209.530438,110.023632 L209.495256,110.86584 L208.811654,111.360868 L201.99184,116.303989 L201.015489,116.637224 L190.652647,116.893773 L187.246094,134.214745 L196.163841,139.264353 L196.889252,140.058069 L200.080865,147.037861 L200.428761,147.797832 L200.053537,148.538464 L195.410284,157.698019 L195.022951,158.46036 L194.19052,158.621989 L185.919801,160.221159 L184.800757,160.057629 L174.482343,154.69269 L162.792881,166.903527 L165.181824,169.897518 L206.836615,169.897518 L208.572414,169.897518 L208.572414,171.636288 L208.572414,200.261238 L208.572414,202 L206.836615,202 L15.735775,202 L14,202 L14,200.261238 L14,171.636288 L14,169.897518 L15.735775,169.897518 L61.2079576,169.897518 Z M66.9207509,167.916628 L65.9766364,169.221538 L160.46839,169.560159 L159.135552,167.890164 L158.187919,166.70394 L159.244044,165.600748 L172.883837,151.352454 L173.778614,150.417703 L174.924086,151.013832 L185.855409,156.697273 L192.706315,155.372556 L196.588157,147.715505 L193.980326,142.01543 L184.456297,136.622757 L183.361144,136.001123 L183.603166,134.77481 L187.52019,114.856224 L187.790112,113.484449 L189.181124,113.449606 L200.398897,113.171669 L206.095249,109.044136 L206.458773,100.284377 L201.644271,96.40039 L190.010937,95.8451541 L188.684398,95.7817815 L188.39803,94.4729117 L184.189975,75.2802254 L183.945662,74.1684829 L184.874476,73.5013652 L194.206311,66.8028392 L196.584475,61.200848 L192.065342,53.0015553 L185.515531,52.4054346 L174.798984,58.1226279 L173.662594,58.7288898 L172.758735,57.8239322 L159.119106,44.1559111 L158.153473,43.1893107 L158.86792,42.0236892 L164.810303,32.3314017 L164.330677,25.8493264 L157.025592,20.725245 L150.420063,23.0119633 L144.073001,32.27435 L143.398236,33.2590194 L142.249737,32.9877387 L123.821461,28.6256781 L122.548269,28.3238178 L122.480359,27.0222362 L121.927178,16.6368508 L117.655385,10.7670631 L108.317364,10.5208117 L104.025992,15.6567806 L103.750186,27.1201645 L103.716968,28.4667464 L102.400427,28.7713039 L83.5372573,33.1319298 L82.3627228,33.4035302 L81.7002635,32.3925608 L75.918697,23.5652972 L69.4123739,21.1505466 L61.4648831,26.0510448 L60.9825411,33.2945097 L66.8782785,41.9492161 L67.6985675,43.1547714 L66.6541914,44.1708074 L52.2889307,58.1284897 L51.3569908,59.0339228 L50.2281689,58.3924821 L40.99149,53.1430574 L33.9444713,53.7516968 L29.2594736,61.0948362 L32.4346735,67.9483422 L40.7745212,73.9376032 L41.6876426,74.5933089 L41.4657646,75.6898436 L37.5477669,95.0272048 L37.2684844,96.4080144 L35.8667046,96.4270344 L25.144741,96.5648965 L19.3462625,101.164953 L19.8349291,110.349226 L25.0783282,114.1703 L36.4059684,114.030855 L37.7696367,114.013393 L38.1080665,115.346981 L42.896173,134.249211 L43.2118243,135.495651 L42.1032363,136.156898 L31.4372699,142.528371 L29.0708061,148.062226 L33.3311937,155.780436 L40.3002466,157.079321 L50.2833561,151.70725 L51.3897268,151.111285 L52.2962044,151.971882 L66.7101722,165.633877 L67.8138593,166.680501 L66.9208246,167.915209 L66.9207509,167.916628 Z M162.005144,82.19564 C159.307648,75.993849 155.496624,70.3954409 150.832105,65.6641982 C148.484075,63.282875 145.919417,61.1211406 143.171286,59.2126114 C117.836909,66.6941151 125.638571,56.5618467 129.556162,52.4063803 C124.363801,50.6919362 118.826325,49.7645271 113.0818,49.7641495 L113.081735,49.7651496 L113.080098,49.7651496 L113.076826,49.7651496 C98.3618851,49.7659695 85.0051145,55.8506173 75.3293925,65.664231 C67.8972354,73.2020247 62.6321256,82.9399113 60.5844984,93.8132284 C60.6388666,93.8249649 60.6940836,93.8371015 60.7501494,93.8496383 L82.3099738,79.0688089 L82.6890187,91.9544775 L103.49266,78.1210646 L103.49266,91.1964821 L120.636062,81.8547376 L120.636062,63.7311368 L135.687576,63.7311368 L135.687576,85.0241585 L146.424819,79.0688089 L146.802907,90.8176401 L162.005144,82.19564 Z M165.036613,80.4763321 L166.850389,79.4476427 L167.236934,86.263905 C169.024694,91.85119 169.991546,97.8070928 169.991928,103.984075 L169.991928,103.987354 L169.991928,103.988994 C169.991928,119.871088 163.602239,134.291989 153.297325,144.742772 C142.985375,155.201565 128.755338,161.686706 113.083658,161.687666 L113.080385,161.687666 L113.078748,161.687666 C97.4051621,161.687666 83.1741835,155.202524 72.8612844,144.741813 C62.5573445,134.29103 56.168596,119.871728 56.1676387,103.99188 L56.1676387,103.9886 L56.1676387,103.987961 C56.1684569,88.1058581 62.5573445,73.6849572 72.8622417,63.2341824 C83.1751408,52.7750617 97.4051621,46.29024 113.076826,46.2892808 L113.080098,46.2892808 L113.080098,46.2882888 L113.081735,46.2882888 C128.754356,46.2882888 142.985375,52.7734303 153.299207,63.2341414 C158.176174,68.1810471 162.176087,74.0170782 165.036616,80.4763394 Z M165.792753,112.928585 L164.392206,112.989372 L61.6956876,113.179432 L60.4089062,113.179432 C62.3180158,124.447243 67.6736382,134.545322 75.3285088,142.309444 C85.0051881,152.124337 98.362916,158.208854 113.078814,158.208854 L113.08045,158.208854 L113.083723,158.208854 C127.797641,158.208854 141.154747,152.124337 150.830142,142.310412 C158.542283,134.489021 163.921006,124.298517 165.792753,112.928585 Z M62.8299424,95.9345399 L62.8299424,100.103695 L68.5044236,100.103695 L68.5044236,95.9345399 L62.8299424,95.9345399 Z M72.0975081,95.9345399 L72.0975081,100.103695 L77.7710238,100.103695 L77.7710238,95.9345399 L72.0975081,95.9345399 Z M84.5803979,95.9345399 L84.5803979,100.103695 L90.2536027,100.103695 L90.2536027,95.9345399 L84.5803979,95.9345399 Z M94.225094,95.9345399 L94.225094,100.103695 L99.8992479,100.103695 L99.8992479,95.9345399 L94.225094,95.9345399 Z M104.816596,95.9345399 L104.816596,100.103695 L110.490759,100.103695 L110.490759,95.9345399 L104.816596,95.9345399 Z M114.840337,95.9345399 L114.840337,100.103695 L120.514483,100.103695 L120.514483,95.9345399 L114.840337,95.9345399 Z M125.242174,95.9345399 L125.242174,100.103695 L130.916353,100.103695 L130.916353,95.9345399 L125.242174,95.9345399 Z M135.833374,95.9345399 L135.833374,100.103695 L141.507471,100.103695 L141.507471,95.9345399 L135.833374,95.9345399 Z M146.235162,95.9345399 L146.235162,100.103695 L151.90934,100.103695 L151.90934,95.9345399 L146.235162,95.9345399 Z M156.637931,95.9345399 L156.637931,100.103695 L162.311128,100.103695 L162.311128,95.9345399 L156.637931,95.9345399 Z M62.2560935,70.7167087 L61.128237,72.841667 L58.4861235,72.5173189 L56.4351228,76.3839172 L58.204951,78.3502308 L57.1058868,80.4223102 L49.4523733,71.5115636 L50.5476084,69.4465347 L62.2560935,70.7167087 Z M56.5285197,72.277577 L52.2397163,71.7022635 L55.1284581,74.9166322 L56.5285197,72.277577 Z M63.0448902,69.8990955 L54.548211,63.0049834 L55.8999746,61.3325777 L64.3905828,62.4508215 L58.7164289,57.8473793 L60.007417,56.2502911 L68.5044236,63.1440834 L67.1088293,64.8703353 L58.7941574,63.8056099 L64.3362056,68.3010481 L63.0448902,69.8990955 Z M70.1056873,61.3290525 L63.0784771,52.9368873 L64.7232443,51.5532575 L72.8447241,54.2740412 L68.1516017,48.6702956 L69.7228051,47.349489 L76.7509644,55.7406868 L75.0524582,57.168866 L67.0944373,54.5339755 L71.6768825,60.0069588 L70.1056873,61.3290525 Z M87.266023,49.5363032 L85.1651206,50.7035972 L83.1249936,48.9901592 L79.3031992,51.1125596 L79.7193493,53.7282169 L77.6712286,54.865702 L76.0952307,43.2155862 L78.1363149,42.0819461 L87.266023,49.5363032 Z M81.6136167,47.7199933 L78.3295151,44.8972805 L79.0050819,49.1699636 L81.6136167,47.7199933 Z M89.3416514,36.9596027 L91.4732606,36.3881343 L93.0054361,42.118166 C93.2485298,43.0268047 93.4334172,43.6107673 93.5568909,43.8662089 C93.7644832,44.2748598 94.0763544,44.5639553 94.4870635,44.7328642 C94.9025753,44.9046589 95.4066895,44.9091434 96.0013286,44.7488509 C96.6071607,44.586353 97.0303472,44.3408395 97.2724837,44.0094409 C97.5127056,43.6806001 97.6163463,43.325156 97.5808367,42.9491999 C97.5481907,42.5693987 97.4186705,41.9633172 97.193798,41.1255116 L95.628682,35.2720876 L97.7593258,34.69966 L99.2464023,40.2572576 C99.5864194,41.5290303 99.7697031,42.4411942 99.7940117,42.9963153 C99.8196212,43.5523956 99.7261834,44.0491779 99.5131665,44.4953276 C99.3001332,44.9379439 98.9601161,45.3385851 98.5011008,45.6911434 C98.0395328,46.0443412 97.3895592,46.3324775 96.5534217,46.5568313 C95.5451934,46.8276611 94.7509557,46.9173993 94.1662412,46.8231684 C93.5821568,46.7295852 93.0908392,46.5359995 92.6890812,46.2462563 C92.2873232,45.9545947 91.9828076,45.6164654 91.7777762,45.2331307 C91.4758216,44.6651957 91.1677877,43.7886123 90.8511137,42.6036921 L89.3416514,36.959242 L89.3416514,36.9596027 Z M102.965832,44.6863883 L102.203267,33.7580561 L104.34575,33.6080606 L109.31908,40.5928701 L108.810482,33.295559 L110.857007,33.1519746 L111.619572,44.0806346 L109.408001,44.2351146 L104.514642,37.4156806 L105.012358,44.5421643 L102.965832,44.6863883 Z M113.90888,44.1713321 L114.09952,33.2183232 L116.306296,33.2564451 L116.115011,44.2094622 L113.90888,44.1713403 Z M120.949517,44.8318993 L118.999269,33.3635063 L121.358614,33.7804866 L122.675171,42.2463706 L126.717379,34.7272718 L129.023951,35.135275 L123.269835,45.2415094 L120.949517,44.8318993 Z M128.19422,46.1991818 L131.75402,35.841031 L139.41682,38.4848987 L138.814547,40.2383934 L133.23757,38.3140632 L132.448504,40.6098569 L137.637738,42.4008505 L137.039229,44.1440892 L131.84934,42.3534153 L130.880843,45.1735621 L136.654759,47.1648722 L136.054696,48.9113164 L128.19422,46.1991818 Z M137.84916,49.5933549 L143.148769,40.0111538 L147.214622,42.2697684 C148.236302,42.8367442 148.930049,43.3364123 149.297254,43.7652555 C149.665442,44.1940905 149.8686,44.7065806 149.903782,45.3007992 C149.938146,45.8966248 149.79758,46.4745043 149.48503,47.0414801 C149.086815,47.7600583 148.546561,48.2379271 147.866478,48.4731846 C147.187458,48.7049086 146.391273,48.650423 145.485368,48.3052349 C145.768136,48.7831119 145.964912,49.2427232 146.074632,49.6853395 C146.18427,50.1286035 146.263308,50.8491 146.311336,51.8503709 L146.446583,54.3685919 L144.138129,53.0868828 L143.895944,50.2247527 C143.812488,49.2045849 143.732796,48.5478626 143.657358,48.2523561 C143.582084,47.9571692 143.461564,47.7183865 143.297516,47.5302526 C143.131505,47.3456358 142.828527,47.1305789 142.383593,46.8834667 L141.993724,46.6671226 L139.781162,50.666418 L137.84916,49.5933549 Z M142.840391,45.136383 L144.266668,45.9283521 C145.194337,46.443728 145.792764,46.7270601 146.068496,46.7780205 C146.340382,46.8270462 146.595986,46.7908098 146.834571,46.6725744 C147.068411,46.5517402 147.26805,46.3501447 147.42768,46.0620084 C147.606128,45.7386195 147.66242,45.432529 147.600728,45.1379816 C147.538546,44.8447214 147.365906,44.5847871 147.081257,44.3565883 C146.936027,44.2505027 146.472847,43.9777464 145.689508,43.5428201 L144.185094,42.7069411 L142.840391,45.136383 Z M149.234581,52.0320937 L151.016281,53.2538734 C150.649975,53.8907148 150.510555,54.4660283 150.596547,54.9820436 C150.682621,55.4935746 150.981099,55.9676066 151.49607,56.4002866 C152.039188,56.8579713 152.547777,57.0887362 153.017339,57.0871375 C153.487228,57.0887772 153.85157,56.9361746 154.11102,56.6272065 C154.277031,56.4281771 154.359505,56.2111936 154.358523,55.9740177 C154.358523,55.7358744 154.259686,55.4445407 154.054728,55.0990329 C153.91588,54.8628162 153.565938,54.3615413 153.008421,53.5936096 C152.290292,52.6061282 151.886594,51.7949178 151.797084,51.159675 C151.668136,50.2657769 151.882176,49.4872694 152.439039,48.8222177 C152.796999,48.3949813 153.252161,48.0981876 153.80616,47.9279998 C154.358523,47.7600583 154.945169,47.7699946 155.563478,47.9568577 C156.180888,48.1478773 156.810325,48.5103719 157.454898,49.0517036 C158.506606,49.937592 159.104133,50.8305228 159.250344,51.7401206 C159.392628,52.6484395 159.156907,53.4990672 158.537615,54.293922 L156.783815,52.9465121 C157.073293,52.4542143 157.177531,52.0125572 157.096611,51.6247382 C157.018064,51.2350007 156.739633,50.8407788 156.263362,50.4407853 C155.773018,50.02765 155.303129,49.8029765 154.856313,49.7741267 C154.568718,49.7516635 154.332996,49.8504526 154.151602,50.066436 C153.984036,50.2654653 153.926108,50.5071339 153.976018,50.7878918 C154.0382,51.1468611 154.399188,51.7699295 155.060371,52.6558097 C155.720244,53.5426574 156.159124,54.2557837 156.380446,54.7945575 C156.598003,55.3342904 156.669595,55.8765895 156.590967,56.4272179 C156.510784,56.9749688 156.248962,57.5137426 155.805664,58.0435392 C155.402949,58.5239823 154.892395,58.8637186 154.275068,59.0582635 C153.655776,59.2528083 153.018321,59.2489634 152.360984,59.0422768 C151.701764,58.8377956 151.007281,58.4281856 150.280233,57.8166604 C149.221817,56.9272549 148.612753,55.9987436 148.456641,55.0311349 C148.299957,54.0635179 148.558998,53.0632144 149.234581,52.0331103 L149.234581,52.0320937 Z M155.007597,61.8793612 L162.738471,54.1333426 L164.29885,55.6970966 L156.568221,63.4431152 L155.007597,61.8793612 Z M159.434274,66.9417753 L166.391382,61.0918766 L164.306786,58.6034563 L165.725126,57.4114938 L171.30873,64.0790057 L169.891372,65.2709683 L167.812258,62.7879999 L160.854169,68.6378985 L159.434274,66.9417753 Z M164.976969,75.0675951 L169.039877,72.9035311 L172.750389,66.3821697 L173.965244,68.6725116 L171.354795,72.9842922 L176.356254,73.1798045 L177.551309,75.4291223 L170.060902,74.8576621 L166.010758,77.0162742 L164.976969,75.0675951 Z M112.506317,120.72332 L112.432035,120.09827 C112.346674,119.379988 112.171212,118.848709 111.885511,118.472045 C111.473903,118.05095 110.846747,117.888791 109.943398,117.912546 C108.572499,117.948595 107.840655,118.133295 103.319769,119.44814 C101.312971,120.031793 99.9523602,120.383553 98.5529414,120.648927 C97.8432765,120.783502 97.1658575,120.884863 96.5128764,120.951575 L89.0597558,144.056702 C91.9569301,143.701754 94.5581665,143.067524 97.4386239,142.114626 C97.9806162,141.935327 98.5137181,141.751846 99.2020055,141.509641 C99.3991381,141.440271 99.6213623,141.361747 100.029633,141.217444 C100.357071,141.101843 100.595205,141.018293 100.825725,140.938382 C102.079617,140.503717 102.945125,140.237756 103.767233,140.051715 C105.869234,139.576038 107.526225,139.70831 109.133894,140.617108 C110.270489,141.259614 111.367789,142.295519 112.506317,143.812665 L112.506317,120.72332 Z M114.029676,120.007634 L114.029676,143.77653 C115.645307,141.297811 117.449668,140.142862 119.752817,139.995389 C120.996486,139.915756 122.359923,140.118888 124.20304,140.602243 C125.18778,140.860489 129.029935,142.012947 129.611349,142.178093 C132.405055,142.971625 134.867011,143.523239 137.487579,143.878558 L130.195938,121.170202 C129.895819,121.137688 129.598915,121.100176 129.30356,121.0575 C127.825225,120.937014 126.335573,120.565738 124.486355,119.918307 C124.124815,119.805045 123.754304,119.684353 123.372546,119.556006 C123.351233,119.54884 120.709136,118.633929 120.045214,118.427727 C118.957782,118.089991 118.144727,117.914579 117.444675,117.882791 C116.010302,117.81766 114.995768,118.374819 114.076341,119.913954 C114.060725,119.944823 114.045171,119.976049 114.029676,120.007634 Z M95.4956721,119.505349 L95.5860851,119.426541 L95.8343364,119.405829 C96.5816151,119.343482 97.3696586,119.225478 98.2132563,119.053886 C99.5151535,118.789072 100.795521,118.43904 102.712753,117.852403 C107.409275,116.415354 108.221678,116.202326 109.822407,116.181628 C111.240456,116.163291 112.324445,116.580723 113.033349,117.465982 C113.190189,117.636256 113.329632,117.827175 113.45119,118.039109 C114.466277,116.705209 115.758872,116.099596 117.356985,116.134005 C118.855672,116.166273 119.445232,116.359882 123.441652,117.90278 C124.018478,118.125474 124.556512,118.324563 125.063959,118.500828 C126.623193,118.984359 128.00176,119.320104 129.403421,119.530088 C129.885683,119.570968 130.362897,119.581662 130.850019,119.563597 L131.148923,119.552512 L131.375471,119.748529 C131.596894,119.940111 131.779314,120.079266 132.199089,120.385145 C132.263326,120.431952 132.263326,120.431952 132.328346,120.479456 C132.668927,120.728618 132.89317,120.902158 133.128757,121.106329 L133.284828,121.241588 L133.3516,121.437398 C134.560795,124.983355 135.519279,127.81362 137.709388,134.295411 C138.104497,135.464762 138.278908,135.980903 138.499592,136.633827 C139.98764,141.036424 141.009372,144.050572 142.037878,147.066606 L142.371438,148.04475 L141.341916,148.078243 C137.200984,148.212958 133.453242,147.629291 128.338209,146.329155 C120.870615,144.431047 121.066274,144.473509 119.401348,144.638461 C117.401616,144.836583 116.41618,146.114165 116.17942,149.365979 L116.128762,150.061747 L115.433812,150.074612 C114.832901,150.085736 114.35215,150.094865 113.270993,150.115566 L113.253938,150.115893 C112.243195,150.135245 111.77945,150.144057 111.210313,150.154627 L110.483972,150.168116 L110.436192,149.440557 C110.25242,146.642227 109.07806,145.456645 106.684995,145.247142 C104.714238,145.07461 103.125675,145.35489 97.3401192,146.682959 C95.3106101,147.148831 94.0011644,147.426749 92.63613,147.66388 C89.7395934,148.167059 87.3219828,148.325655 85.1324171,148.073881 L84.1972471,147.966348 L84.4971195,147.070823 C85.0543474,145.406744 85.6258504,143.699937 86.218014,141.931337 C87.7523102,137.348892 89.2377413,132.91188 91.5474392,126.012405 C92.2322832,123.966651 92.2455016,123.927166 92.904424,121.958842 L92.904424,121.735385 L93.1662152,121.506831 C93.5131298,121.203961 93.769827,120.983931 94.2890416,120.542259 C94.7940689,120.112656 95.0296762,119.911068 95.337142,119.643489 L95.3788586,119.514165 L95.4956721,119.505349 Z M134.245558,128.808405 L139.659669,145.669566 L138.492113,145.539486 C135.325673,145.186704 132.477955,144.577848 129.197439,143.646041 C128.593441,143.474479 124.772887,142.328501 123.818781,142.078288 C122.118953,141.632511 120.898732,141.450716 119.849591,141.517893 C117.530037,141.666417 115.831265,143.133282 114.082133,146.833602 L113.479199,148.109121 L112.746674,146.903879 C111.153968,144.283358 109.759555,142.721718 108.387969,141.946376 C107.14425,141.243314 105.86401,141.141117 104.101554,141.539956 C103.346707,141.710775 102.526958,141.962675 101.321948,142.380396 C101.094678,142.45918 100.858961,142.541882 100.534006,142.656606 C100.126498,142.80064 99.9031355,142.879566 99.7049154,142.949318 C99.0083931,143.194421 98.4669816,143.380762 97.9144435,143.56355 C94.5560193,144.674567 91.5476329,145.369546 88.0468739,145.700813 L86.8966077,145.80966 L94.4410931,122.421295 C94.4015079,122.455541 94.3620762,122.489728 94.3221329,122.524432 C93.6890511,124.415566 93.6670724,124.48122 92.991467,126.499376 C90.6817616,133.398874 89.1963236,137.835906 87.6620172,142.418381 C87.178818,143.86154 86.709375,145.263556 86.250219,146.634787 C88.0359838,146.734106 90.0324705,146.564488 92.376328,146.157318 C93.7080378,145.925977 94.9955287,145.652718 97.0004843,145.192482 C102.995085,143.816428 104.612955,143.530976 106.817367,143.723964 C109.732873,143.979205 111.466061,145.539068 111.883844,148.612779 C112.230876,148.606219 112.634541,148.598513 113.224882,148.58721 L113.241937,148.586883 C113.908336,148.574123 114.346725,148.565758 114.725764,148.558613 C115.132236,145.093851 116.603644,143.379249 119.251702,143.116895 C121.194709,142.924392 120.877057,142.855455 128.712191,144.846985 C133.264445,146.004074 136.679486,146.575121 140.257968,146.568045 C139.337965,143.86665 138.382346,141.046286 137.056982,137.125012 C136.836277,136.472027 136.661848,135.955833 136.266731,134.786457 C135.44601,132.357473 134.798296,130.44142 134.245558,128.808405 Z M131.219277,136.862302 C131.276582,136.880508 131.333533,136.898718 131.390113,136.916925 C131.788884,137.045246 132.083458,137.145367 132.247349,137.203532 L131.739499,138.645028 C131.589172,138.591677 131.30871,138.496352 130.925026,138.372886 C130.283513,138.166454 129.592175,137.959351 128.878227,137.765424 L129.258735,136.354251 C128.952054,136.263858 128.638483,136.174855 128.320428,136.088466 L128.718367,134.612593 C129.4564,134.813055 130.169834,135.026762 130.832479,135.239974 C131.231289,135.368295 131.525894,135.468416 131.689802,135.52658 L131.219277,136.862302 Z M126.877172,135.718102 C127.168844,135.776455 127.467755,135.840987 127.773308,135.911329 L127.432741,137.401591 C126.355659,137.153633 125.374,136.983491 124.528141,136.908861 L124.66154,135.385773 C125.272852,135.439709 125.938158,135.537412 126.648507,135.673341 C125.660304,135.453193 124.756977,135.301304 123.970931,135.231875 L124.104475,133.7088 C125.028623,133.790427 126.076194,133.972054 127.216251,134.234544 L126.877172,135.718102 Z M95.7151239,136.862271 L95.2446125,135.526579 C95.4085213,135.468415 95.7031271,135.368295 96.1019377,135.239974 C96.7645829,135.026762 97.4780162,134.813054 98.216046,134.612593 L98.613986,136.088465 C98.2959642,136.174845 97.9824254,136.263839 97.675775,136.354222 L98.0562608,137.765417 C97.3422567,137.959345 96.6508528,138.166449 96.0092699,138.372883 C95.625544,138.496349 95.3450468,138.591675 95.1946986,138.645028 L94.6869042,137.203512 C94.8508126,137.145347 95.1454171,137.045227 95.5442268,136.916908 C95.6008273,136.898696 95.6577985,136.880481 95.7151239,136.862271 Z M100.057241,135.718134 L99.7181516,134.234543 C100.858199,133.972054 101.905754,133.790426 102.829881,133.7088 L102.963427,135.231875 C102.177115,135.301328 101.27343,135.453303 100.284814,135.673581 C100.995342,135.537585 101.660804,135.439822 102.272241,135.385837 L102.405733,136.908917 C101.559856,136.983601 100.578163,137.153784 99.5010392,137.401767 L99.1604512,135.91151 C99.4662335,135.84111 99.7653625,135.776528 100.057241,135.718134 Z M97.1568318,123.310643 C97.3207407,123.252479 97.6153471,123.15236 98.014159,123.024039 C98.6768062,122.810827 99.3902431,122.597121 100.128278,122.396659 L100.526215,123.872533 C99.8122042,124.066469 99.1207931,124.273578 98.4792027,124.480014 C98.095472,124.603482 97.8149709,124.698808 97.6646199,124.752161 L97.1568318,123.310643 Z M101.630397,122.018611 C102.770457,121.756122 103.818028,121.574495 104.742175,121.492868 L104.875718,123.015943 C104.029838,123.090657 103.048139,123.260863 101.971006,123.508864 L101.630397,122.018611 Z M106.409443,121.470205 C106.974089,121.517349 107.458517,121.63053 107.860337,121.825016 C108.480447,122.125794 109.000643,122.321163 109.427891,122.427179 L109.062283,123.911452 C108.526069,123.778398 107.907969,123.54626 107.198067,123.201929 C106.985205,123.098901 106.676292,123.026728 106.283154,122.993903 L106.409443,121.470205 Z M97.1739244,125.10253 C97.3377599,125.043321 97.631893,124.941565 98.0296551,124.811368 C98.6905507,124.59504 99.4012862,124.378695 100.135513,124.176423 L100.538341,125.649424 C99.82886,125.844879 99.1407737,126.05433 98.5015203,126.263573 C98.119193,126.388718 97.8394807,126.485486 97.6895007,126.539687 L97.1739244,125.10253 Z M101.647916,123.791495 C102.793749,123.525787 103.841915,123.345997 104.760824,123.272483 L104.881748,124.795135 C104.047005,124.861916 103.069127,125.029649 101.990509,125.27977 L101.647916,123.791495 Z M106.459509,123.280326 C106.937154,123.336204 107.353098,123.445502 107.705206,123.619454 C108.399143,123.96206 108.963506,124.166564 109.406535,124.257554 L109.101436,125.754026 C108.521848,125.634989 107.837165,125.386886 107.033283,124.989998 C106.853056,124.90096 106.600816,124.834679 106.283315,124.797536 L106.459509,123.280326 Z M97.0941424,127.26543 C97.2556391,127.205595 97.5447297,127.103072 97.9352837,126.972045 C98.583917,126.754435 99.2812361,126.536935 100.00148,126.33371 C100.129024,126.297722 100.256399,126.262446 100.383515,126.227931 L100.824691,127.864741 C100.702989,127.897786 100.58096,127.931581 100.458701,127.966078 C99.7665649,128.161371 99.0949491,128.370855 98.4708665,128.580228 C98.097791,128.705391 97.8250206,128.802127 97.6791994,128.856154 L97.0941424,127.26543 Z M102.072331,125.813919 C103.444255,125.517583 104.642617,125.365451 105.624896,125.394704 L105.574789,127.089605 C104.75272,127.065122 103.67805,127.201552 102.427774,127.471612 L102.072331,125.813919 Z M107.623441,125.868333 C108.467744,126.280036 109.075378,126.454552 109.468812,126.465047 C109.59682,126.468462 109.589859,126.47073 109.517037,126.531119 L110.59312,127.838303 C109.975923,128.350127 108.781636,128.318269 106.88517,127.393506 L107.623441,125.868333 Z M97.0821761,129.366158 C97.2390832,129.306134 97.5196197,129.20341 97.8984856,129.072171 C98.5275915,128.854248 99.2038938,128.636439 99.9024773,128.432909 C100.066784,128.385039 100.230758,128.338438 100.394203,128.293221 L100.845694,129.937235 C100.689761,129.980375 100.533168,130.024878 100.376131,130.07063 C99.7065023,130.265724 99.0566546,130.475012 98.4528051,130.684187 C98.0918978,130.809205 97.82812,130.905793 97.6873039,130.959661 L97.0821761,129.366158 Z M102.093346,127.872334 C103.524144,127.564068 104.749965,127.42815 105.727305,127.512238 L105.58219,129.21133 C104.806026,129.144552 103.730264,129.263831 102.449948,129.539676 L102.093346,127.872334 Z M107.630901,128.118872 C108.308142,128.431733 108.795277,128.559667 109.109488,128.562073 C109.203758,128.562794 109.189087,128.567636 109.121509,128.621592 L110.179254,129.956156 C109.596373,130.421538 108.534099,130.413406 106.920503,129.667983 L107.630901,128.118872 Z M96.1214224,131.534465 C96.2853311,131.476301 96.5799366,131.376181 96.9787466,131.24786 C97.6413909,131.034648 98.3548225,130.82094 99.0928498,130.620479 L99.4907911,132.096351 C98.7767877,132.290287 98.0853812,132.497397 97.4437933,132.703834 C97.060064,132.827302 96.7795631,132.922629 96.6292119,132.975982 L96.1214224,131.534465 Z M100.594949,130.24243 C101.734991,129.97994 102.782539,129.798313 103.706657,129.716686 L103.840205,131.239761 C102.994355,131.314474 102.012679,131.48468 100.935563,131.732681 L100.594949,130.24243 Z M105.373866,129.694024 C105.938418,129.741164 106.42277,129.854326 106.824535,130.048774 C107.444869,130.349745 107.965063,130.545135 108.392269,130.651104 L108.026776,132.135407 C107.490497,132.002381 106.872314,131.770185 106.162204,131.425657 C105.949475,131.3227 105.640625,131.250542 105.247568,131.217721 L105.373866,129.694024 Z M95.8022264,133.450378 C95.9661346,133.392214 96.2607388,133.292094 96.659548,133.163775 C97.3221903,132.950565 98.0356228,132.736863 98.7736545,132.536409 L99.1715794,134.012286 C98.4575759,134.206213 97.7661727,134.413317 97.1245904,134.61975 C96.7408648,134.743216 96.4603679,134.838542 96.3100199,134.891894 L95.8022264,133.450378 Z M100.275769,132.158379 C101.415827,131.895907 102.463401,131.714303 103.387556,131.632707 L103.521049,133.155786 C102.675172,133.230471 101.69348,133.400654 100.616356,133.648637 L100.275769,132.158379 Z M105.05485,131.610115 C105.619505,131.657291 106.103945,131.770509 106.505776,131.965036 C107.125814,132.265726 107.646054,132.461128 108.073365,132.567233 L107.707518,134.051447 C107.17137,133.918317 106.553336,133.686183 105.843504,133.341948 C105.630534,133.238849 105.321618,133.166653 104.928479,133.133807 L105.05485,131.610115 Z M104.497109,133.686138 C105.061704,133.73328 105.546091,133.846453 105.947879,134.040922 C106.568074,134.34172 107.088305,134.537094 107.515569,134.643111 L107.149969,136.127387 C106.613747,135.994334 105.995625,135.762196 105.28563,135.417845 C105.072778,135.314823 104.763904,135.242658 104.370813,135.209835 L104.497109,133.686138 Z M103.939536,135.363247 C104.504193,135.410423 104.988633,135.523642 105.390464,135.718171 C106.010543,136.018767 106.530819,136.214034 106.958068,136.319942 L106.59281,137.804303 C106.056575,137.671379 105.43838,137.439361 104.728291,137.095131 C104.515219,136.991981 104.206303,136.919784 103.813164,136.886938 L103.939536,135.363247 Z M129.269647,124.752161 C129.119295,124.698808 128.838793,124.603481 128.455062,124.480013 C127.81347,124.273577 127.122061,124.066468 126.408054,123.872532 L126.805993,122.396659 C127.544023,122.59712 128.257458,122.810827 128.920105,123.024038 C129.318917,123.152359 129.613524,123.252478 129.777433,123.310642 L129.269647,124.752161 Z M124.963277,123.508863 C123.886157,123.260862 122.904479,123.090656 122.058629,123.015942 L122.192177,121.492868 C123.116294,121.574494 124.163844,121.756122 125.303889,122.018611 L124.963277,123.508863 Z M120.651266,122.993902 C120.25821,123.026721 119.949363,123.098879 119.735978,123.202155 C119.026554,123.546359 118.408382,123.778561 117.872105,123.911599 L117.50658,122.427305 C117.933791,122.321324 118.45398,122.125927 119.07364,121.825275 C119.476068,121.630505 119.960418,121.517344 120.52497,121.470204 L120.651266,122.993902 Z M129.286922,126.539718 C129.136912,126.485501 128.857146,126.388706 128.474751,126.263531 C127.835383,126.054236 127.147186,125.844742 126.437606,125.649259 L126.840437,124.176258 C127.574773,124.378561 128.285627,124.594953 128.946645,124.811334 C129.34448,124.941564 129.638671,125.043349 129.802541,125.102576 L129.286922,126.539718 Z M124.986278,125.279806 C123.90759,125.029651 122.929656,124.861907 122.094882,124.795146 L122.215767,123.272491 C123.134732,123.345986 124.182973,123.525789 125.328893,123.791536 L124.986278,125.279806 Z M120.693175,124.797636 C120.375917,124.834792 120.123847,124.901052 119.943874,124.989959 C119.139591,125.387061 118.454654,125.635201 117.874819,125.75419 L117.569962,124.257668 C118.013143,124.166723 118.57767,123.962205 119.271956,123.619412 C119.62375,123.445625 120.039455,123.336352 120.516787,123.280449 L120.693175,124.797636 Z M129.206793,128.856154 C129.060971,128.802126 128.788201,128.70539 128.415131,128.580227 C127.791059,128.370853 127.119462,128.161369 126.427355,127.966076 C126.304857,127.93151 126.18259,127.897648 126.060653,127.86454 L126.501816,126.227727 C126.629179,126.262308 126.756802,126.297653 126.884595,126.333713 C127.604806,126.536937 128.302103,126.754437 128.950723,126.972046 C129.341269,127.103073 129.630355,127.205596 129.791851,127.26543 L129.206793,128.856154 Z M124.458399,127.471609 C123.208097,127.201523 122.133474,127.065095 121.311564,127.089612 L121.261375,125.394714 C122.243547,125.365417 123.441886,125.517551 124.813867,125.813922 L124.458399,127.471609 Z M120.000815,127.393984 C118.104852,128.318056 116.911027,128.350082 116.2939,127.838362 L117.369924,126.53113 C117.297109,126.470753 117.290114,126.468475 117.418079,126.465042 C117.811347,126.454492 118.418778,126.280052 119.26283,125.86867 L120.000815,127.393984 Z M129.194722,130.959662 C129.053898,130.905792 128.790112,130.809204 128.429198,130.684184 C127.825337,130.475009 127.175488,130.26572 126.505869,130.070625 C126.348835,130.024873 126.192245,129.98037 126.036315,129.937231 L126.487818,128.293219 C126.651258,128.338436 126.815228,128.385037 126.979531,128.432907 C127.678099,128.636436 128.354398,128.854244 128.98351,129.072166 C129.362379,129.203405 129.642921,129.306128 129.799831,129.366152 L129.194722,130.959662 Z M124.432129,129.53967 C123.151786,129.263802 122.076089,129.144528 121.300138,129.211344 L121.154904,127.512261 C122.1321,127.428117 123.357884,127.564033 124.788752,127.872333 L124.432129,129.53967 Z M119.961633,129.668227 C118.34935,130.412629 117.28757,130.421509 116.703988,129.957298 L117.759321,128.620812 C117.692235,128.567449 117.678257,128.562857 117.7732,128.562063 C118.087687,128.559433 118.574769,128.431445 119.25156,128.118966 L119.961633,129.668227 Z M130.304956,132.975921 C130.15463,132.922569 129.87417,132.827243 129.490491,132.703776 C128.848985,132.49734 128.157657,132.290232 127.443721,132.096297 L127.841695,130.620434 C128.579662,130.820896 129.293021,131.034605 129.955589,131.247818 C130.354354,131.37614 130.648923,131.476262 130.812811,131.534427 L130.304956,132.975921 Z M125.998263,131.732444 C124.921204,131.484469 123.939571,131.314303 123.093742,131.239645 L123.227196,129.716562 C124.151321,129.798132 125.198851,129.979721 126.33886,130.242189 L125.998263,131.732444 Z M121.686418,131.21772 C121.293409,131.250576 120.984562,131.322761 120.771111,131.426068 C120.061752,131.770227 119.443473,132.002431 118.907145,132.135436 L118.541738,130.651112 C118.96897,130.545163 119.489232,130.34977 120.108785,130.049183 C120.5112,129.854419 120.995508,129.741225 121.559968,129.694036 L121.686418,131.21772 Z M130.624248,134.891894 C130.473899,134.838541 130.1934,134.743216 129.809672,134.61975 C129.168086,134.413317 128.476679,134.206213 127.762673,134.012285 L128.160596,132.536408 C128.898631,132.736862 129.612066,132.950564 130.274712,133.163774 C130.673523,133.292093 130.968129,133.392213 131.132038,133.450377 L130.624248,134.891894 Z M126.31789,133.648636 C125.240763,133.400653 124.25907,133.23047 123.413193,133.155786 L123.546686,131.632706 C124.47084,131.714302 125.518415,131.895906 126.658477,132.158378 L126.31789,133.648636 Z M122.005768,133.133806 C121.612633,133.166652 121.303722,133.238848 121.090287,133.342174 C120.380969,133.686285 119.76291,133.918477 119.226753,134.05159 L118.860956,132.567363 C119.288179,132.461296 119.808365,132.265873 120.427913,131.965311 C120.830305,131.770509 121.314742,131.657291 121.879396,131.610115 L122.005768,133.133806 Z M122.56349,135.209836 C122.170348,135.242661 121.861431,135.314836 121.647994,135.418142 C120.93865,135.762304 120.320491,135.994499 119.784244,136.127533 L119.41871,134.643241 C119.845899,134.537262 120.366078,134.341871 120.985646,134.041267 C121.388122,133.846465 121.872553,133.733283 122.4372,133.686138 L122.56349,135.209836 Z M123.121328,136.886949 C122.728183,136.919792 122.419197,136.991974 122.205607,137.0953 C121.495979,137.439347 120.877794,137.671381 120.341523,137.804314 L119.976267,136.319953 C120.403525,136.214043 120.923771,136.01877 121.543596,135.718262 C121.946038,135.523577 122.430432,135.410417 122.994973,135.363257 L123.121328,136.886949 Z M205.100488,173.374108 L17.4709281,173.374108 L17.4709281,198.522147 L205.100488,198.522147 L205.100488,173.374108 Z M22.2219214,193.131245 L22.2219214,180.563513 L24.5604847,180.563513 C25.4318045,180.563513 26.0011779,180.62541 26.2685884,180.744605 C26.6965695,180.937871 27.0484258,181.353244 27.3267101,181.98561 C27.6049944,182.620533 27.7447829,183.436547 27.7447829,184.43749 C27.7447829,185.348047 27.623232,186.108289 27.3839674,186.72238 C27.1443837,187.337759 26.8433863,187.767241 26.4835362,188.016272 C26.1252816,188.265302 25.5060148,188.390621 24.6257357,188.390621 L23.672531,188.390621 L23.672531,193.131245 L22.2219214,193.131245 Z M23.672531,182.690406 L23.672531,186.254767 L24.4769962,186.254767 C25.0163009,186.254767 25.3828683,186.201889 25.5776641,186.093868 C25.769907,185.985856 25.9295204,185.789384 26.0520368,185.506061 C26.177106,185.221769 26.2385197,184.876261 26.2385197,184.464093 C26.2385197,184.048712 26.1751915,183.694555 26.0481913,183.410903 C25.9186466,183.123726 25.7615942,182.933985 25.5731885,182.833991 C25.3844638,182.737833 24.9881468,182.690406 24.3797619,182.690406 L23.672531,182.690406 Z M28.9417278,193.131245 L28.9417278,180.563513 L32.004475,180.563513 C32.7878389,180.563513 33.3482448,180.677297 33.6847519,180.903578 C34.0199743,181.127931 34.2956976,181.520227 34.5106537,182.076307 C34.7272052,182.634953 34.834356,183.301932 34.834356,184.077881 C34.834356,185.06087 34.6702671,185.854126 34.3411238,186.453477 C34.0091005,187.053147 33.5404878,187.431022 32.935613,187.582944 C33.2465269,187.905374 33.5040209,188.253448 33.7064995,188.634208 C33.9112199,189.013689 34.1895042,189.696048 34.5413605,190.679045 L35.4155604,193.131245 L33.6847519,193.131245 L32.6282256,190.395721 C32.2501379,189.409199 31.9916866,188.788376 31.8547782,188.540625 C31.7197924,188.291586 31.5745711,188.121718 31.4232788,188.025249 C31.2719783,187.931657 31.027919,187.884542 30.6923775,187.884542 L30.3913801,187.884542 L30.3913801,193.131245 L28.9417278,193.131245 Z M30.3913801,185.877524 L31.472215,185.877524 C32.131467,185.877524 32.550178,185.836779 32.7309008,185.754132 C32.9113045,185.672395 33.0562067,185.506061 33.1687984,185.254464 C33.2791565,185.002539 33.3364138,184.665689 33.3364138,184.250307 C33.3364138,183.849674 33.2791401,183.528212 33.1687984,183.284625 C33.0562067,183.041997 32.9049062,182.875015 32.7126714,182.78399 C32.5773666,182.719551 32.1823259,182.690406 31.5320332,182.690406 L30.3913801,182.690406 L30.3913801,185.877524 Z M35.9142417,186.925263 C35.9142417,185.42689 36.0674568,184.194862 36.379328,183.226614 C36.6876809,182.258038 37.0929572,181.534975 37.5925876,181.060624 C38.0912689,180.587231 38.697101,180.350055 39.4097647,180.350055 C40.4407061,180.350055 41.2794045,180.911587 41.9303354,182.038169 C42.5787136,183.16475 42.9040195,184.768249 42.9040195,186.848666 C42.9040195,188.949267 42.560476,190.593791 41.8730782,191.776784 C41.2691689,192.824203 40.4506226,193.344703 39.4152057,193.344703 C38.371476,193.344703 37.5490924,192.826761 36.9461322,191.793771 C36.257777,190.612057 35.9142417,188.987406 35.9142417,186.925263 Z M37.4121839,186.839689 C37.4121839,188.285175 37.6044269,189.368174 37.98699,190.091237 C38.371476,190.81366 38.8464788,191.176155 39.4152057,191.176155 C39.9861745,191.176155 40.4586164,190.816226 40.8357467,190.099566 C41.2122307,189.382595 41.3980754,188.282609 41.3980754,186.796099 C41.3980754,185.33875 41.2157489,184.26217 40.8495006,183.562825 C40.485805,182.866677 40.0072839,182.517972 39.4152057,182.517972 C38.8237657,182.517972 38.3414073,182.869563 37.9706752,183.571794 C37.5989859,184.276911 37.4121839,185.365354 37.4121839,186.839689 Z M47.3933788,188.510496 L47.3933788,186.391941 L50.5277753,186.391941 L50.5277753,191.398582 C50.2130241,191.930945 49.7642526,192.38799 49.1859283,192.771636 C48.6063193,193.154963 48.0260804,193.344703 47.4404004,193.344703 C46.7302895,193.344703 46.1020716,193.095992 45.5598869,192.595357 C45.0157957,192.095689 44.5842882,191.346023 44.266976,190.348605 C43.949672,189.35086 43.7900505,188.179729 43.7900505,186.831679 C43.7900505,185.447082 43.9512675,184.265056 44.2733743,183.282059 C44.5942047,182.299062 45.011312,181.563817 45.5253427,181.078889 C46.0387352,180.592683 46.6551219,180.350055 47.3687511,180.350055 C48.2282398,180.350055 48.9175523,180.662557 49.4351012,181.289462 C49.9529692,181.915416 50.2846734,182.831425 50.4314984,184.045187 L48.9936853,184.516653 C48.8865264,183.869867 48.6888506,183.37565 48.3996843,183.033028 C48.1140444,182.690406 47.7695437,182.517972 47.3687511,182.517972 C46.7513989,182.517972 46.2472847,182.863152 45.8644025,183.550962 C45.4799247,184.238772 45.2896045,185.288757 45.2896045,186.702516 C45.2896045,188.215309 45.4965586,189.368174 45.9117432,190.15502 C46.2680832,190.837378 46.7513989,191.176155 47.3569119,191.176155 C47.6406371,191.176155 47.9355553,191.079678 48.242951,190.889937 C48.5474666,190.696351 48.8193526,190.436745 49.0608591,190.105977 L49.0608591,188.510496 L47.3933788,188.510496 Z M51.8769861,193.131245 L51.8769861,180.563513 L54.9397334,180.563513 C55.7230891,180.563513 56.2835032,180.677297 56.620002,180.903578 C56.9555436,181.127931 57.230956,181.520227 57.4459039,182.076307 C57.6627745,182.634953 57.7696143,183.301932 57.7696143,184.077881 C57.7696143,185.06087 57.6055172,185.854126 57.276374,186.453477 C56.9446698,187.053147 56.4757462,187.431022 55.8711905,187.582944 C56.1811471,187.905374 56.4395983,188.253448 56.6417578,188.634208 C56.8467892,189.013689 57.1250735,189.696048 57.4769298,190.679045 L58.3508187,193.131245 L56.620002,193.131245 L55.5637948,190.395721 C55.1857072,189.409199 54.9272559,188.788376 54.7903556,188.540625 C54.6550508,188.291586 54.5101486,188.121718 54.358529,188.025249 C54.2072284,187.931657 53.9631692,187.884542 53.6279468,187.884542 L53.3269494,187.884542 L53.3269494,193.131245 L51.8769861,193.131245 Z M53.3269494,185.877524 L54.4074652,185.877524 C55.0667172,185.877524 55.4857473,185.836779 55.666151,185.754132 C55.8455974,185.672395 55.9917842,185.506061 56.1040568,185.254464 C56.2147258,185.002539 56.2716639,184.665689 56.2716639,184.250307 C56.2716639,183.849674 56.2147176,183.528212 56.1040568,183.284625 C55.9917842,183.041997 55.8401645,182.875015 55.6469643,182.78399 C55.5129359,182.719551 55.1175761,182.690406 54.4666452,182.690406 L53.3269494,182.690406 L53.3269494,185.877524 Z M59.1424873,193.131245 L59.1424873,180.563513 L64.4913435,180.563513 L64.4913435,182.690406 L60.593097,182.690406 L60.593097,185.476891 L64.2146546,185.476891 L64.2146546,187.591921 L60.593097,187.591921 L60.593097,191.012698 L64.6218455,191.012698 L64.6218455,193.131245 L59.1424873,193.131245 Z M65.4858179,189.042859 L66.9057125,188.800231 C67.0653259,190.406616 67.5886349,191.211407 68.477235,191.211407 C68.9151326,191.211407 69.2605907,191.04795 69.5126437,190.717183 C69.7663003,190.38931 69.8907313,189.982266 69.8907313,189.497018 C69.8907313,189.210161 69.8481852,188.967533 69.7602293,188.768504 C69.6722652,188.5669 69.5369604,188.402484 69.3565485,188.27332 C69.1771021,188.145436 68.7427227,187.931657 68.0508493,187.627494 C67.4315825,187.357631 66.9773618,187.067888 66.6907647,186.752509 C66.4015984,186.439056 66.1732158,186.02656 66.0036859,185.51407 C65.8331905,185.002539 65.7497101,184.452231 65.7497101,183.864423 C65.7497101,183.179179 65.8574991,182.562522 66.0743779,182.011885 C66.2938013,181.464782 66.5947986,181.048761 66.9773618,180.768003 C67.3618477,180.490122 67.8342978,180.350055 68.3991792,180.350055 C69.2458795,180.350055 69.9070461,180.677297 70.3820489,181.335938 C70.8589744,181.991693 71.1100701,182.933985 71.1366205,184.156724 L69.6821817,184.267622 C69.6168898,183.591667 69.4800222,183.121168 69.266989,182.852257 C69.0555511,182.584952 68.7526392,182.450664 68.3620741,182.450664 C67.9711981,182.450664 67.6682861,182.567965 67.4578056,182.802255 C67.2447723,183.035586 67.1388979,183.325649 67.1388979,183.677248 C67.1388979,184.018903 67.2348558,184.30576 67.4270988,184.54037 C67.6193417,184.777226 68.0617231,185.031709 68.7510355,185.312475 C69.4835405,185.61695 70.011325,185.935855 70.3366309,186.269188 C70.6622559,186.602513 70.9117561,187.035841 71.083847,187.563072 C71.2552914,188.092548 71.341341,188.733243 71.341341,189.488041 C71.341341,190.57937 71.1065519,191.495059 70.6379474,192.238314 C70.167101,192.981249 69.4317242,193.353041 68.4337316,193.353041 C66.6680516,193.353041 65.6834937,191.916524 65.4858179,189.042859 Z M72.199226,189.042859 L73.6191288,188.800231 C73.7787422,190.406616 74.3026894,191.211407 75.190324,191.211407 C75.6282216,191.211407 75.9736797,191.04795 76.2257408,190.717183 C76.4797166,190.38931 76.6041476,189.982266 76.6041476,189.497018 C76.6041476,189.210161 76.5612742,188.967533 76.4733183,188.768504 C76.3853542,188.5669 76.2503685,188.402484 76.0699648,188.27332 C75.8905184,188.145436 75.4561308,187.931657 74.7652147,187.627494 C74.1449906,187.357631 73.6907781,187.067888 73.4041728,186.752509 C73.115972,186.439056 72.8863048,186.02656 72.7167749,185.51407 C72.5462877,185.002539 72.4631183,184.452231 72.4631183,183.864423 C72.4631183,183.179179 72.5718727,182.562522 72.7884242,182.011885 C73.0068985,181.464782 73.3082149,181.048761 73.6907781,180.768003 C74.0752559,180.490122 74.5477059,180.350055 75.1125955,180.350055 C75.9592876,180.350055 76.6204542,180.677297 77.0954652,181.335938 C77.5723907,181.991693 77.8234864,182.933985 77.850675,184.156724 L76.3955898,184.267622 C76.3300525,183.591667 76.1931113,183.121168 75.980078,182.852257 C75.7699247,182.584952 75.4660473,182.450664 75.0751713,182.450664 C74.6846143,182.450664 74.3816942,182.567965 74.1712219,182.802255 C73.9581886,183.035586 73.8519951,183.325649 73.8519951,183.677248 C73.8519951,184.018903 73.9482721,184.30576 74.140515,184.54037 C74.332758,184.777226 74.7751312,185.031709 75.4641327,185.312475 C76.1969486,185.61695 76.7247331,185.935855 77.050039,186.269188 C77.3756722,186.602513 77.6248452,187.035841 77.7972551,187.563072 C77.9687077,188.092548 78.0547491,188.733243 78.0547491,189.488041 C78.0547491,190.57937 77.8199682,191.495059 77.3510364,192.238314 C76.8805091,192.981249 76.1460896,193.353041 75.1477779,193.353041 C73.3814679,193.353041 72.3978673,191.916524 72.199226,189.042859 Z M83.6997998,193.131245 L83.6997998,182.690406 L81.5601968,182.690406 L81.5601968,180.563513 L87.2852096,180.563513 L87.2852096,182.690406 L85.1507285,182.690406 L85.1507285,193.131245 L83.6997998,193.131245 Z M88.2326624,193.131245 L88.2326624,180.563513 L89.6832721,180.563513 L89.6832721,185.508627 L92.5377807,185.508627 L92.5377807,180.563513 L93.9938313,180.563513 L93.9938313,193.131245 L92.5377807,193.131245 L92.5377807,187.635511 L89.6832721,187.635511 L89.6832721,193.131245 L88.2326624,193.131245 Z M95.4981718,193.131245 L95.4981718,180.563513 L98.560919,180.563513 C99.3452402,180.563513 99.9056462,180.677297 100.241188,180.903578 C100.576737,181.127931 100.853099,181.520227 101.068055,182.076307 C101.284926,182.634953 101.3908,183.301932 101.3908,184.077881 C101.3908,185.06087 101.227668,185.854126 100.89756,186.453477 C100.566821,187.053147 100.097889,187.431022 99.492057,187.582944 C99.80329,187.905374 100.060784,188.253448 100.263901,188.634208 C100.468621,189.013689 100.746267,189.696048 101.098762,190.679045 L101.972004,193.131245 L100.241188,193.131245 L99.1856269,190.395721 C98.806901,189.409199 98.5490798,188.788376 98.4115413,188.540625 C98.2771938,188.291586 98.1313342,188.121718 97.9797146,188.025249 C97.8284223,187.931657 97.5853204,187.884542 97.2497788,187.884542 L96.9487814,187.884542 L96.9487814,193.131245 L95.4981718,193.131245 Z M96.9487814,185.877524 L98.0296163,185.877524 C98.687911,185.877524 99.1078984,185.836779 99.2873448,185.754132 C99.4677485,185.672395 99.6129698,185.506061 99.7252425,185.254464 C99.8359196,185.002539 99.8928578,184.665689 99.8928578,184.250307 C99.8928578,183.849674 99.8359114,183.528212 99.7252425,183.284625 C99.6129698,183.041997 99.4613502,182.875015 99.2691072,182.78399 C99.1341215,182.719551 98.7397273,182.690406 98.088469,182.690406 L96.9487814,182.690406 L96.9487814,185.877524 Z M102.471635,186.925263 C102.471635,185.42689 102.624858,184.194862 102.935772,183.226614 C103.245082,182.258038 103.650358,181.534975 104.149032,181.060624 C104.64867,180.587231 105.254502,180.350055 105.966209,180.350055 C106.998107,180.350055 107.836806,180.911587 108.486779,182.038169 C109.136115,183.16475 109.461421,184.768249 109.461421,186.848666 C109.461421,188.949267 109.11692,190.593791 108.429841,191.776784 C107.825924,192.824203 107.008024,193.344703 105.972607,193.344703 C104.928869,193.344703 104.106486,192.826761 103.502576,191.793771 C102.815178,190.612057 102.471635,188.987406 102.471635,186.925263 Z M103.969585,186.839689 C103.969585,188.285175 104.161828,189.368174 104.544391,190.091237 C104.928869,190.81366 105.40388,191.176155 105.972607,191.176155 C106.543895,191.176155 107.016018,190.816226 107.392502,190.099566 C107.768667,189.382595 107.954511,188.282609 107.954511,186.796099 C107.954511,185.33875 107.77315,184.26217 107.406902,183.562825 C107.042568,182.866677 106.56372,182.517972 105.972607,182.517972 C105.381486,182.517972 104.898162,182.869563 104.528077,183.571794 C104.15543,184.276911 103.969585,185.365354 103.969585,186.839689 Z M110.582241,180.563513 L112.032842,180.563513 L112.032842,187.369486 C112.032842,188.428768 112.048879,189.11657 112.086598,189.435474 C112.149926,189.991554 112.303149,190.418471 112.544337,190.722635 C112.785516,191.024552 113.1057,191.176155 113.500102,191.176155 C113.835644,191.176155 114.11041,191.068143 114.322486,190.854365 C114.533596,190.640906 114.678818,190.342194 114.756865,189.962393 C114.833939,189.58451 114.872983,188.768504 114.872983,187.515636 L114.872983,180.563513 L116.329983,180.563513 L116.329983,187.165005 C116.329983,188.850232 116.266328,190.070405 116.141258,190.820071 C116.015232,191.571336 115.732464,192.179984 115.290729,192.645358 C114.848348,193.113938 114.265229,193.344703 113.54264,193.344703 C112.792871,193.344703 112.205269,193.151118 111.783686,192.765225 C111.362095,192.381579 111.05726,191.837681 110.86694,191.138976 C110.67662,190.439303 110.582257,189.148305 110.582257,187.267565 L110.582241,180.563513 Z M121.216249,188.510496 L121.216249,186.391941 L124.35067,186.391941 L124.35067,191.398582 C124.036237,191.930945 123.587131,192.38799 123.008831,192.771636 C122.429549,193.154963 121.848386,193.344703 121.263295,193.344703 C120.553511,193.344703 119.924974,193.095992 119.382757,192.595357 C118.838739,192.095689 118.407223,191.346023 118.089846,190.348605 C117.77255,189.35086 117.613002,188.179729 117.613002,186.831679 C117.613002,185.447082 117.774186,184.265056 118.09631,183.282059 C118.417124,182.299062 118.834239,181.563817 119.348229,181.078889 C119.861646,180.592683 120.477419,180.350055 121.191621,180.350055 C122.051134,180.350055 122.740463,180.662557 123.257971,181.289462 C123.775888,181.915416 124.107584,182.831425 124.254695,184.045187 L122.816555,184.516653 C122.709453,183.869867 122.511123,183.37565 122.222628,183.033028 C121.936014,182.690406 121.592454,182.517972 121.191621,182.517972 C120.573311,182.517972 120.070204,182.863152 119.687616,183.550962 C119.303146,184.238772 119.112507,185.288757 119.112507,186.702516 C119.112507,188.215309 119.319428,189.368174 119.734662,190.15502 C120.090986,190.837378 120.573311,191.176155 121.179184,191.176155 C121.463834,191.176155 121.758466,191.079678 122.06488,190.889937 C122.370394,190.696351 122.642607,190.436745 122.883729,190.105977 L122.883729,188.510496 L121.216249,188.510496 Z M125.698972,193.131245 L125.698972,180.563513 L127.149876,180.563513 L127.149876,185.508627 L130.004066,185.508627 L130.004066,180.563513 L131.461025,180.563513 L131.461025,193.131245 L130.004066,193.131245 L130.004066,187.635511 L127.149876,187.635511 L127.149876,193.131245 L125.698972,193.131245 Z M135.776428,193.131245 L135.776428,180.563513 L137.227986,180.563513 L137.227986,186.143869 L140.172014,180.563513 L142.132244,180.563513 L139.41682,185.458625 L142.27551,193.131245 L140.392435,193.131245 L138.408314,187.232312 L137.227986,189.332594 L137.227986,193.131245 L135.776428,193.131245 Z M143.042567,193.131245 L143.042567,180.563513 L144.458943,180.563513 L147.406816,188.955679 L147.406816,180.563513 L148.761173,180.563513 L148.761173,193.131245 L147.298733,193.131245 L144.39717,184.935559 L144.39717,193.131245 L143.042567,193.131245 Z M150.00352,186.925263 C150.00352,185.42689 150.156768,184.194862 150.467682,183.226614 C150.776959,182.258038 151.182293,181.534975 151.6809,181.060624 C152.180572,180.587231 152.786117,180.350055 153.49811,180.350055 C154.52969,180.350055 155.368748,180.911587 156.018722,182.038169 C156.668041,183.16475 156.993355,184.768249 156.993355,186.848666 C156.993355,188.949267 156.649795,190.593791 155.961448,191.776784 C155.358439,192.824203 154.539917,193.344703 153.504492,193.344703 C152.460803,193.344703 151.638436,192.826761 151.034445,191.793771 C150.34708,190.612057 150.00352,188.987406 150.00352,186.925263 Z M151.50147,186.839689 C151.50147,188.285175 151.693746,189.368174 152.076334,190.091237 C152.460803,190.81366 152.935765,191.176155 153.504492,191.176155 C154.07551,191.176155 154.547935,190.816226 154.924387,190.099566 C155.300593,189.382595 155.487386,188.282609 155.487386,186.796099 C155.487386,185.33875 155.305093,184.26217 154.938787,183.562825 C154.574118,182.866677 154.095638,182.517972 153.504492,182.517972 C152.913101,182.517972 152.429712,182.869563 152.05997,183.571794 C151.687364,184.276911 151.50147,185.365354 151.50147,186.839689 Z M159.143161,193.131245 L157.425116,180.563513 L158.916685,180.563513 L159.994656,189.19542 L161.314731,180.563513 L163.047503,180.563513 L164.312268,189.341891 L165.421249,180.563513 L166.884017,180.563513 L165.132999,193.131245 L163.58612,193.131245 L162.14708,183.735259 L160.720722,193.131245 L159.143161,193.131245 Z M167.669892,193.131245 L167.669892,180.666402 L169.120878,180.666402 L169.120878,191.012698 L172.740489,191.012698 L172.740489,193.131245 L167.669892,193.131245 Z M173.783932,193.131245 L173.783932,180.563513 L179.131815,180.563513 L179.131815,182.690406 L175.234836,182.690406 L175.234836,185.476891 L178.856083,185.476891 L178.856083,187.591921 L175.234836,187.591921 L175.234836,191.012698 L179.263217,191.012698 L179.263217,193.131245 L173.783932,193.131245 Z M180.486417,180.563513 L183.140395,180.563513 C183.812132,180.563513 184.319086,180.671845 184.661009,180.885304 C185.002687,181.098762 185.317447,181.461256 185.603978,181.970861 C185.892228,182.476948 186.11805,183.138475 186.28308,183.948718 C186.447209,184.761838 186.528783,185.768553 186.528783,186.974305 C186.528783,188.062748 186.442709,189.00568 186.271298,189.809831 C186.098822,190.612057 185.880364,191.246988 185.616497,191.717486 C185.352629,192.186395 185.035251,192.537026 184.661009,192.774202 C184.28644,193.011378 183.807632,193.131245 183.21845,193.131245 L180.486417,193.131245 L180.486417,180.563513 Z M181.93544,182.690406 L181.93544,191.012698 L183.027811,191.012698 C183.494837,191.012698 183.833896,190.950801 184.042454,190.825515 C184.253876,190.699237 184.425942,190.509177 184.558326,190.255014 C184.693655,190.000531 184.804029,189.598939 184.891985,189.04927 C184.979941,188.502478 185.022815,187.779096 185.022815,186.880713 C185.022815,185.950284 184.978632,185.216317 184.888467,184.677544 C184.797975,184.142303 184.659127,183.717953 184.468815,183.410903 C184.278176,183.100328 184.048836,182.898413 183.77695,182.802255 C183.57191,182.726011 183.179423,182.690406 182.596295,182.690406 L181.93544,182.690406 Z M191.114109,188.510496 L191.114109,186.391941 L194.24943,186.391941 L194.24943,191.398582 C193.934016,191.930945 193.485891,192.38799 192.906609,192.771636 C192.327982,193.154963 191.746818,193.344703 191.161073,193.344703 C190.451289,193.344703 189.823734,193.095992 189.281517,192.595357 C188.736517,192.095689 188.305002,191.346023 187.987706,190.348605 C187.67041,189.35086 187.51168,188.179729 187.51168,186.831679 C187.51168,185.447082 187.672946,184.265056 187.994088,183.282059 C188.315884,182.299062 188.732999,181.563817 189.246007,181.078889 C189.760406,180.592683 190.375852,180.350055 191.089481,180.350055 C191.948912,180.350055 192.639223,180.662557 193.156731,181.289462 C193.674648,181.915416 194.005362,182.831425 194.153456,184.045187 L192.714415,184.516653 C192.608214,183.869867 192.409556,183.37565 192.121388,183.033028 C191.834774,182.690406 191.491214,182.517972 191.089481,182.517972 C190.472071,182.517972 189.968964,182.863152 189.586049,183.550962 C189.201906,184.238772 189.011267,185.288757 189.011267,186.702516 C189.011267,188.215309 189.218188,189.368174 189.633422,190.15502 C189.988764,190.837378 190.472071,191.176155 191.077617,191.176155 C191.361694,191.176155 191.656244,191.079678 191.96364,190.889937 C192.268172,190.696351 192.540385,190.436745 192.782489,190.105977 L192.782489,188.510496 L191.114109,188.510496 Z M195.597651,193.131245 L195.597651,180.563513 L200.946515,180.563513 L200.946515,182.690406 L197.048637,182.690406 L197.048637,185.476891 L200.669883,185.476891 L200.669883,187.591921 L197.048637,187.591921 L197.048637,191.012698 L201.077017,191.012698 L201.077017,193.131245 L195.597651,193.131245 Z" id="Combined-Shape" fill="#00316B"></path>
        <path d="M267.968934,40.1122924 C263.039718,40.1122924 259.194288,42.1332024 256.432529,46.1750831 C253.67077,50.2169637 252.289911,55.7897762 252.289911,62.8936877 C252.289911,77.6614249 257.900743,85.0451827 269.122574,85.0451827 C272.513595,85.0451827 275.79969,84.5727622 278.980957,83.627907 C282.162224,82.6830518 285.360922,81.5457431 288.577148,80.2159468 L288.577148,97.7481728 C282.179655,100.582738 274.943255,102 266.867732,102 C255.29631,102 246.425603,98.6405652 240.255343,91.9215947 C234.085083,85.2026242 231,75.4917579 231,62.7887043 C231,54.8449215 232.494474,47.863596 235.483466,41.8445183 C238.472459,35.8254406 242.772349,31.1974691 248.383265,27.9604651 C253.994181,24.7234611 260.592589,23.1049834 268.178687,23.1049834 C276.463964,23.1049834 284.382054,24.9071802 291.933193,28.5116279 L285.58817,44.8365449 C282.756493,43.5067486 279.924859,42.386937 277.093181,41.4770764 C274.261504,40.5672158 271.220119,40.1122924 267.968934,40.1122924 Z M350.231658,100.950166 L304.715297,100.950166 L304.715297,24.207309 L350.231658,24.207309 L350.231658,40.8471761 L325.428387,40.8471761 L325.428387,52.9202658 L348.396321,52.9202658 L348.396321,69.5601329 L325.428387,69.5601329 L325.428387,84.0478405 L350.231658,84.0478405 L350.231658,100.950166 Z M437.843079,100.950166 L410.680089,100.950166 L382.678088,46.8837209 L382.206144,46.8837209 C382.870365,55.3874179 383.20247,61.8788259 383.20247,66.3581395 L383.20247,100.950166 L364.849099,100.950166 L364.849099,24.207309 L391.907212,24.207309 L419.804337,77.5388704 L420.118966,77.5388704 C419.62954,69.8050555 419.384831,63.5936004 419.384831,58.9043189 L419.384831,24.207309 L437.843079,24.207309 L437.843079,100.950166 Z M489.429453,100.950166 L468.716363,100.950166 L468.716363,41.1621262 L449.995924,41.1621262 L449.995924,24.207309 L508.097454,24.207309 L508.097454,41.1621262 L489.429453,41.1621262 L489.429453,100.950166 Z M540.96339,73.0245847 L540.96339,100.950166 L520.250299,100.950166 L520.250299,24.207309 L545.368199,24.207309 C566.20375,24.207309 576.621369,31.7660374 576.621369,46.8837209 C576.621369,55.772359 572.286521,62.6487021 563.616694,67.5129568 L585.955369,100.950166 L562.463054,100.950166 L546.20721,73.0245847 L540.96339,73.0245847 Z M540.96339,57.4345515 L544.843817,57.4345515 C552.080325,57.4345515 555.698525,54.2325902 555.698525,47.8285714 C555.698525,42.5443811 552.150242,39.9023256 545.05357,39.9023256 L540.96339,39.9023256 L540.96339,57.4345515 Z M639.639272,100.950166 L594.122911,100.950166 L594.122911,24.207309 L639.639272,24.207309 L639.639272,40.8471761 L614.836001,40.8471761 L614.836001,52.9202658 L637.803935,52.9202658 L637.803935,69.5601329 L614.836001,69.5601329 L614.836001,84.0478405 L639.639272,84.0478405 L639.639272,100.950166 Z M732.835944,100.950166 L712.437483,100.950166 L712.437483,24.207309 L757.744091,24.207309 L757.744091,40.8471761 L732.835944,40.8471761 L732.835944,55.4923588 L755.803878,55.4923588 L755.803878,72.1322259 L732.835944,72.1322259 L732.835944,100.950166 Z M843.257984,62.4737542 C843.257984,75.3867755 840.094244,85.2026242 833.766669,91.9215947 C827.439094,98.6405652 818.175104,102 805.974421,102 C793.948532,102 784.72824,98.6230681 778.313268,91.869103 C771.898296,85.1151379 768.690858,75.2817921 768.690858,62.3687708 C768.690858,49.5957279 771.880816,39.841119 778.26083,33.1046512 C784.640843,26.3681834 793.913573,23 806.079297,23 C818.27998,23 827.526491,26.3419378 833.819107,33.0259136 C840.111723,39.7098895 843.257984,49.5257381 843.257984,62.4737542 Z M790.505151,62.4737542 C790.505151,77.3114806 795.661522,84.7302326 805.974421,84.7302326 C811.218267,84.7302326 815.107395,82.9280357 817.641921,79.323588 C820.176447,75.7191403 821.443691,70.1025852 821.443691,62.4737542 C821.443691,54.8099285 820.158968,49.1496307 817.589483,45.492691 C815.019998,41.8357514 811.183308,40.007309 806.079297,40.007309 C795.696481,40.007309 790.505151,47.4960491 790.505151,62.4737542 Z M879.008021,73.0245847 L879.008021,100.950166 L858.29493,100.950166 L858.29493,24.207309 L883.41283,24.207309 C904.248381,24.207309 914.666,31.7660374 914.666,46.8837209 C914.666,55.772359 910.331151,62.6487021 901.661325,67.5129568 L924,100.950166 L900.507685,100.950166 L884.251841,73.0245847 L879.008021,73.0245847 Z M879.008021,57.4345515 L882.888448,57.4345515 C890.124956,57.4345515 893.743156,54.2325902 893.743156,47.8285714 C893.743156,42.5443811 890.194873,39.9023256 883.098201,39.9023256 L879.008021,39.9023256 L879.008021,57.4345515 Z M284.698173,177.611444 C284.698173,182.377048 283.492074,186.60821 281.079839,190.305057 C278.667604,194.001904 275.189144,196.875239 270.644354,198.92515 C266.099564,200.97506 260.768256,202 254.65027,202 C249.546121,202 245.263594,201.640833 241.802562,200.922488 C238.34153,200.204144 234.740712,198.951439 231,197.164338 L231,178.662675 C234.950471,180.695064 239.058201,182.280655 243.323311,183.419494 C247.588422,184.558333 251.503874,185.127745 255.069786,185.127745 C258.14626,185.127745 260.401141,184.593374 261.834498,183.524617 C263.267855,182.455861 263.984522,181.080514 263.984522,179.398536 C263.984522,178.3473 263.696107,177.427482 263.119268,176.639055 C262.54243,175.850628 261.616006,175.053453 260.339969,174.247505 C259.063931,173.441557 255.66413,171.794645 250.140462,169.30672 C245.141193,167.029042 241.391798,164.821479 238.892163,162.683965 C236.392529,160.546452 234.539681,158.093604 233.333563,155.325349 C232.127446,152.557094 231.524396,149.280791 231.524396,145.496341 C231.524396,138.418017 234.093912,132.899111 239.233021,128.939454 C244.372129,124.979798 251.433928,123 260.418628,123 C268.35453,123 276.447631,124.839636 284.698173,128.518962 L278.352979,144.550233 C271.186194,141.25636 264.998381,139.609448 259.789352,139.609448 C257.097438,139.609448 255.139712,140.082497 253.916115,141.028609 C252.692518,141.974722 252.080728,143.148585 252.080728,144.550233 C252.080728,146.057005 252.858575,147.406071 254.414291,148.597472 C255.970008,149.788873 260.191355,151.961395 267.07846,155.115103 C273.685885,158.093605 278.274306,161.291067 280.843861,164.707585 C283.413415,168.124102 284.698173,172.425346 284.698173,177.611444 Z M331.208389,200.948769 L310.494738,200.948769 L310.494738,141.081171 L291.773793,141.081171 L291.773793,124.103792 L349.876894,124.103792 L349.876894,141.081171 L331.208389,141.081171 L331.208389,200.948769 Z M426.85453,124.103792 L426.85453,170.357951 C426.85453,180.414776 424.014079,188.202567 418.333092,193.721557 C412.652104,199.240547 404.462865,202 393.765129,202 C383.312112,202 375.28019,199.319388 369.669122,193.958084 C364.058055,188.59678 361.252563,180.88783 361.252563,170.831005 L361.252563,124.103792 L382.071093,124.103792 L382.071093,169.201597 C382.071093,174.632983 383.084915,178.57506 385.112591,181.027944 C387.140267,183.480828 390.129295,184.707252 394.079766,184.707252 C398.309917,184.707252 401.377604,183.489589 403.28292,181.054225 C405.188236,178.618861 406.140879,174.632984 406.140879,169.096474 L406.140879,124.103792 L426.85453,124.103792 Z M508.86637,160.896873 C508.86637,173.721954 505.344211,183.603425 498.299786,190.541583 C491.255362,197.479742 481.353112,200.948769 468.59274,200.948769 L443.788799,200.948769 L443.788799,124.103792 L470.323248,124.103792 C482.629141,124.103792 492.129357,127.257453 498.824182,133.56487 C505.519008,139.872287 508.86637,148.982863 508.86637,160.896873 Z M487.366125,161.632735 C487.366125,154.589452 485.976489,149.368391 483.197175,145.969395 C480.417861,142.570398 476.196514,140.870925 470.533006,140.870925 L464.50245,140.870925 L464.50245,183.918829 L469.117136,183.918829 C475.409923,183.918829 480.024563,182.087954 482.961197,178.426148 C485.89783,174.764342 487.366125,169.166593 487.366125,161.632735 Z M568.958448,200.948769 L523.440856,200.948769 L523.440856,124.103792 L568.958448,124.103792 L568.958448,140.765802 L544.154506,140.765802 L544.154506,152.854957 L567.123061,152.854957 L567.123061,169.516966 L544.154506,169.516966 L544.154506,184.023952 L568.958448,184.023952 L568.958448,200.948769 Z M656.21425,200.948769 L629.050525,200.948769 L601.047767,146.810379 L600.575811,146.810379 C601.240049,155.325392 601.572164,161.825438 601.572164,166.310712 L601.572164,200.948769 L583.218296,200.948769 L583.218296,124.103792 L610.277141,124.103792 L638.17502,177.506321 L638.489657,177.506321 C638.000219,169.762215 637.755503,163.542494 637.755503,158.846973 L637.755503,124.103792 L656.21425,124.103792 L656.21425,200.948769 Z M707.444031,200.948769 L686.730381,200.948769 L686.730381,141.081171 L668.009436,141.081171 L668.009436,124.103792 L726.112537,124.103792 L726.112537,141.081171 L707.444031,141.081171 L707.444031,200.948769 Z M788.040001,177.611444 C788.040001,182.377048 786.833902,186.60821 784.421667,190.305057 C782.009433,194.001904 778.530973,196.875239 773.986183,198.92515 C769.441393,200.97506 764.110084,202 757.992098,202 C752.887949,202 748.605423,201.640833 745.144391,200.922488 C741.683358,200.204144 738.08254,198.951439 734.341828,197.164338 L734.341828,178.662675 C738.2923,180.695064 742.400029,182.280655 746.66514,183.419494 C750.93025,184.558333 754.845703,185.127745 758.411615,185.127745 C761.488088,185.127745 763.742969,184.593374 765.176326,183.524617 C766.609683,182.455861 767.326351,181.080514 767.326351,179.398536 C767.326351,178.3473 767.037936,177.427482 766.461097,176.639055 C765.884258,175.850628 764.957834,175.053453 763.681797,174.247505 C762.40576,173.441557 759.005958,171.794645 753.48229,169.30672 C748.483021,167.029042 744.733626,164.821479 742.233992,162.683965 C739.734357,160.546452 737.881509,158.093604 736.675392,155.325349 C735.469274,152.557094 734.866225,149.280791 734.866225,145.496341 C734.866225,138.418017 737.43574,132.899111 742.574849,128.939454 C747.713958,124.979798 754.775756,123 763.760456,123 C771.696359,123 779.78946,124.839636 788.040001,128.518962 L781.694807,144.550233 C774.528023,141.25636 768.340209,139.609448 763.131181,139.609448 C760.439267,139.609448 758.481541,140.082497 757.257943,141.028609 C756.034346,141.974722 755.422556,143.148585 755.422556,144.550233 C755.422556,146.057005 756.200403,147.406071 757.75612,148.597472 C759.311836,149.788873 763.533184,151.961395 770.420288,155.115103 C777.027714,158.093605 781.616135,161.291067 784.185689,164.707585 C786.755243,168.124102 788.040001,172.425346 788.040001,177.611444 Z M905.231369,200.948769 L901.455717,186.546906 L876.546896,186.546906 L872.666364,200.948769 L849.907568,200.948769 L874.921268,123.788423 L902.556949,123.788423 L927.885286,200.948769 L905.231369,200.948769 Z M897.155668,169.516966 L893.851971,156.902196 C893.082853,154.098899 892.147689,150.472189 891.046452,146.021956 C889.945214,141.571723 889.219807,138.383021 888.870207,136.455755 C888.555568,138.242857 887.935039,141.186274 887.008601,145.286094 C886.082163,149.385915 884.028298,157.462792 880.846945,169.516966 L897.155668,169.516966 Z M957.405064,200.948769 L937.006051,200.948769 L937.006051,124.103792 L982.313885,124.103792 L982.313885,140.765802 L957.405064,140.765802 L957.405064,155.430472 L980.373619,155.430472 L980.373619,172.092482 L957.405064,172.092482 L957.405064,200.948769 Z M1016.13371,200.948769 L995.734699,200.948769 L995.734699,124.103792 L1041.04253,124.103792 L1041.04253,140.765802 L1016.13371,140.765802 L1016.13371,155.430472 L1039.10227,155.430472 L1039.10227,172.092482 L1016.13371,172.092482 L1016.13371,200.948769 Z M1099.35166,200.948769 L1095.57601,186.546906 L1070.66719,186.546906 L1066.78666,200.948769 L1044.02786,200.948769 L1069.04156,123.788423 L1096.67724,123.788423 L1122.00558,200.948769 L1099.35166,200.948769 Z M1091.27596,169.516966 L1087.97227,156.902196 C1087.20315,154.098899 1086.26798,150.472189 1085.16675,146.021956 C1084.06551,141.571723 1083.3401,138.383021 1082.9905,136.455755 C1082.67586,138.242857 1082.05533,141.186274 1081.12889,145.286094 C1080.20246,149.385915 1078.14859,157.462792 1074.96724,169.516966 L1091.27596,169.516966 Z M1131.12634,200.948769 L1131.12634,124.103792 L1151.94487,124.103792 L1151.94487,200.948769 L1131.12634,200.948769 Z M1190.06475,172.986028 L1190.06475,200.948769 L1169.3511,200.948769 L1169.3511,124.103792 L1194.46968,124.103792 C1215.30579,124.103792 1225.72369,131.672579 1225.72369,146.810379 C1225.72369,155.710845 1221.38873,162.596338 1212.71867,167.467066 L1235.05795,200.948769 L1211.565,200.948769 L1195.30871,172.986028 L1190.06475,172.986028 Z M1190.06475,157.37525 L1193.94528,157.37525 C1201.18199,157.37525 1204.80028,154.169027 1204.80028,147.756487 C1204.80028,142.465265 1201.25191,139.819694 1194.15504,139.819694 L1190.06475,139.819694 L1190.06475,157.37525 Z M1293,177.611444 C1293,182.377048 1291.7939,186.60821 1289.38167,190.305057 C1286.96943,194.001904 1283.49097,196.875239 1278.94618,198.92515 C1274.40139,200.97506 1269.07008,202 1262.9521,202 C1257.84795,202 1253.56542,201.640833 1250.10439,200.922488 C1246.64336,200.204144 1243.04254,198.951439 1239.30183,197.164338 L1239.30183,178.662675 C1243.2523,180.695064 1247.36003,182.280655 1251.62514,183.419494 C1255.89025,184.558333 1259.8057,185.127745 1263.37161,185.127745 C1266.44809,185.127745 1268.70297,184.593374 1270.13632,183.524617 C1271.56968,182.455861 1272.28635,181.080514 1272.28635,179.398536 C1272.28635,178.3473 1271.99793,177.427482 1271.4211,176.639055 C1270.84426,175.850628 1269.91783,175.053453 1268.6418,174.247505 C1267.36576,173.441557 1263.96596,171.794645 1258.44229,169.30672 C1253.44302,167.029042 1249.69362,164.821479 1247.19399,162.683965 C1244.69436,160.546452 1242.84151,158.093604 1241.63539,155.325349 C1240.42927,152.557094 1239.82622,149.280791 1239.82622,145.496341 C1239.82622,138.418017 1242.39574,132.899111 1247.53485,128.939454 C1252.67396,124.979798 1259.73575,123 1268.72046,123 C1276.65636,123 1284.74946,124.839636 1293,128.518962 L1286.65481,144.550233 C1279.48802,141.25636 1273.30021,139.609448 1268.09118,139.609448 C1265.39927,139.609448 1263.44154,140.082497 1262.21794,141.028609 C1260.99434,141.974722 1260.38256,143.148585 1260.38256,144.550233 C1260.38256,146.057005 1261.1604,147.406071 1262.71612,148.597472 C1264.27183,149.788873 1268.49318,151.961395 1275.38029,155.115103 C1281.98771,158.093605 1286.57613,161.291067 1289.14569,164.707585 C1291.71524,168.124102 1293,172.425346 1293,177.611444 Z" id="Combined-Shape" fill="#00316B"></path>
    </g>
</svg>