<?xml version="1.0" encoding="UTF-8"?>
<svg width="440px" height="439px" viewBox="0 0 440 439" version="1.1" xmlns="http://www.w3.org/2000/svg" xmlns:xlink="http://www.w3.org/1999/xlink">
    <!-- Generator: Sketch 52.6 (67491) - http://www.bohemiancoding.com/sketch -->
    <title>Combined Shape Copy 2@1x</title>
    <desc>Created with Sketch.</desc>
    <g id="Page-1" stroke="none" stroke-width="1" fill="none" fill-rule="evenodd">
        <path d="M340.275996,367 L433.10148,367 L437,367 L437,370.899745 L437,435.100274 L437,439 L433.10148,439 L3.89846454,439 L-5.24346904e-14,439 L-5.29122691e-14,435.100274 L-6.07745663e-14,370.899745 L-6.12521473e-14,367 L3.89846454,367 L105.166473,367 L105.927831,365.947243 L105.928143,365.960464 L110.49785,359.638663 L82.6546398,333.234888 L61.5268199,344.609302 L58.9849324,345.007585 L40.1835132,341.501794 L38.3630251,341.160116 L37.4733617,339.546027 L26.1037551,318.943002 L25.1920875,317.28656 L25.9369053,315.542209 L32.4971648,300.197521 L34.0812274,298.38163 L56.6170029,284.911906 L47.3355898,248.253437 L23.6857743,248.541732 L21.356894,247.795363 L7.02577751,237.345256 L5.50916017,236.238352 L5.40979235,234.384012 L4.10653111,209.891883 L4,207.884151 L5.58299725,206.627043 L21.2205525,194.217616 L23.5913106,193.376229 L45.8555236,193.091488 L53.5227148,155.223253 L36.0295161,142.652222 L34.7656714,141.111809 L26.296503,122.823335 L25.3965538,120.881434 L26.5407531,119.087622 L39.2437802,99.166884 L40.2864443,97.5314532 L42.211333,97.3677499 L61.1043322,95.7344552 L63.3416325,96.2530208 L82.6340315,107.223829 L110.442803,80.1872466 L98.2804582,62.3215833 L97.5949305,59.8639716 L98.8971081,40.2703455 L99.031925,38.2686539 L100.755856,37.2051718 L121.928051,24.1429938 L123.536249,23.1492651 L125.305271,23.8059381 L142.896111,30.3373862 L144.813175,31.8621285 L157.007829,50.4894449 L193.762183,41.9883461 L194.339802,17.9037441 L195.253601,15.4945437 L206.980344,1.45287127 L208.192704,-1.56319402e-12 L210.053674,0.0499028015 L234.80932,0.702653543 L236.738451,0.752556344 L237.868416,2.30329971 L249.269265,17.9775671 L250.014065,20.0842387 L251.162213,41.6535738 L287.096076,50.1635851 L300.564915,30.4951969 L302.51223,29.0017773 L320.428927,22.7959864 L322.304793,22.1475078 L323.92829,23.2835976 L343.471974,37.0003125 L344.99243,38.0680667 L345.130186,39.929165 L346.432437,57.5648887 L345.854414,59.868391 L333.452539,80.111932 L359.876664,106.601481 L382.406525,94.5742979 L384.583433,94.1336801 L402.496823,95.7659252 L404.559119,95.9545615 L405.55647,97.7647626 L417.608078,119.644802 L418.517817,121.29734 L417.775222,123.046664 L411.26213,138.395992 L409.952899,140.042821 L390.212868,154.221883 L398.466825,191.890101 L422.852164,193.055377 L425.105114,193.924883 L438.459156,204.699229 L440,205.946008 L439.922857,207.889326 L438.945893,231.403747 L438.866913,233.29545 L437.332314,234.407343 L422.022691,245.510201 L419.830905,246.258688 L396.567632,246.834927 L388.920351,285.739961 L408.939568,297.082003 L410.568025,298.864785 L417.732793,314.542256 L418.513776,316.249245 L417.671446,317.912795 L407.247927,338.486283 L406.378413,340.198594 L404.50971,340.561632 L385.94299,344.153566 L383.430876,343.786255 L360.267339,331.735944 L334.02597,359.162984 L339.977386,366.625865 L340.275996,367 Z M118.805128,361.438534 L116.68571,364.369522 L328.807783,365.130107 L325.815728,361.379092 L323.688411,358.714688 L326.05928,356.236783 L356.678893,324.233362 L358.687556,322.133798 L361.258997,323.472777 L385.798439,336.238484 L401.177858,333.263007 L409.892103,316.064329 L404.037851,303.261258 L382.657608,291.148652 L380.199127,289.752386 L380.742435,286.997935 L389.53566,242.258343 L390.141602,239.177167 L393.264249,239.098906 L418.446735,238.474624 L431.234326,229.203678 L432.050391,209.528182 L421.242442,200.80427 L395.127074,199.557142 L392.149162,199.414799 L391.506302,196.474916 L382.059748,153.365783 L381.511296,150.868672 L383.596367,149.370244 L404.54516,134.324531 L409.883838,121.74177 L399.738953,103.32515 L385.035455,101.98619 L360.978159,114.827709 L358.427106,116.189448 L356.398055,114.156802 L325.778809,83.4567455 L323.611085,81.2856422 L325.214929,78.6675129 L338.554828,56.8974434 L337.478129,42.3379051 L321.079134,30.8285881 L306.250554,35.9648386 L292.002201,56.7692981 L290.487439,58.9809866 L287.909202,58.3716568 L246.540048,48.5739323 L243.681892,47.8959171 L243.529442,44.9724047 L242.28762,21.6455519 L232.697983,8.46128701 L211.735305,7.90817614 L202.101714,19.4441939 L201.482567,45.1923638 L201.407995,48.2169523 L198.452528,48.9010258 L156.10709,58.6955278 L153.470408,59.3055758 L151.98327,57.0348142 L139.004383,37.2076945 L124.398508,31.7838677 L106.557393,42.7909894 L105.474596,59.0607022 L118.709783,78.5002372 L120.551228,81.2080627 L118.206736,83.4902043 L85.958537,114.840875 L83.8664495,116.874589 L81.3323866,115.433835 L60.5972073,103.642981 L44.777539,105.01006 L34.2603098,121.503654 L41.3882332,136.897472 L60.1101397,150.350088 L62.159982,151.822884 L61.661894,154.285836 L52.8664832,197.719927 L52.2395292,200.821395 L49.0927103,200.864116 L25.0232541,201.173771 L12.006401,211.506064 L13.1033959,232.135072 L24.8741656,240.717672 L50.3032895,240.404463 L53.3645529,240.36524 L54.124285,243.360642 L64.8729805,285.817375 L65.5815777,288.617033 L63.0929374,290.102276 L39.149188,304.413387 L33.8367752,316.843107 L43.400808,334.179156 L59.0454531,337.09661 L81.4562749,325.030278 L83.9399377,323.691668 L85.9748656,325.624674 L118.332406,356.311196 L120.810044,358.662041 L118.805294,361.435348 L118.805128,361.438534 Z M332.2576,168.898654 C326.202062,154.968669 317.646793,142.393956 307.175538,131.767003 C301.904505,126.418259 296.147173,121.562737 289.977965,117.275946 C233.105482,134.080323 250.61923,111.322002 259.413728,101.988314 C247.757531,98.1374616 235.326596,96.0543867 222.430863,96.0535385 L222.430716,96.055785 L222.427043,96.055785 L222.419696,96.055785 C189.38651,96.0576264 159.402244,109.724494 137.681468,131.767077 C120.997213,148.697888 109.177705,170.570379 104.58104,194.993187 C104.70309,195.019548 104.827045,195.046809 104.952906,195.074968 L153.351993,161.875407 L154.202901,190.818204 L200.904452,159.746657 L200.904452,189.115653 L239.389229,168.132946 L239.389229,127.42511 L273.17798,127.42511 L273.17798,175.251855 L297.281736,161.875407 L298.130495,188.264727 L332.2576,168.898654 Z M339.062865,165.036877 L343.134564,162.726315 L344.002309,178.036478 C348.015604,190.586207 350.186067,203.963897 350.186924,217.838158 L350.186924,217.845524 L350.186924,217.849207 C350.186924,253.522344 335.842877,285.913461 312.709646,309.387205 C289.560618,332.878939 257.615978,347.445365 222.435033,347.447519 L222.427686,347.447519 L222.424012,347.447519 C187.238787,347.447519 155.292035,332.881094 132.140877,309.38505 C109.009831,285.911306 94.6678963,253.523781 94.6657473,217.855689 L94.6657473,217.848323 L94.6657473,217.846887 C94.6675841,182.173731 109.009831,149.782614 132.143026,126.308889 C155.294184,102.816418 187.238787,88.2507106 222.419696,88.2485562 L222.427043,88.2485562 L222.427043,88.246328 L222.430716,88.246328 C257.613774,88.246328 289.560618,102.812753 312.71387,126.308797 C323.662046,137.420155 332.641347,150.528599 339.062872,165.036894 L339.062865,165.036877 Z M340.760305,237.928629 L337.616253,238.065163 L107.07552,238.492062 L104.186858,238.492062 C108.472568,263.800952 120.495265,286.482478 137.679485,303.921651 C159.402409,325.967107 189.388824,339.633679 222.424159,339.633679 L222.427833,339.633679 L222.43518,339.633679 C255.46607,339.633679 285.451089,325.967107 307.17113,303.923824 C324.483914,286.356019 336.55847,263.466894 340.760305,237.928629 Z M109.621779,199.757913 L109.621779,209.122349 L122.360274,209.122349 L122.360274,199.757913 L109.621779,199.757913 Z M130.426295,199.757913 L130.426295,209.122349 L143.162623,209.122349 L143.162623,199.757913 L130.426295,199.757913 Z M158.448809,199.757913 L158.448809,209.122349 L171.184438,209.122349 L171.184438,199.757913 L158.448809,199.757913 Z M180.099935,199.757913 L180.099935,209.122349 L192.837695,209.122349 L192.837695,199.757913 L180.099935,199.757913 Z M203.876523,199.757913 L203.876523,209.122349 L216.614301,209.122349 L216.614301,199.757913 L203.876523,199.757913 Z M226.378557,199.757913 L226.378557,209.122349 L239.116299,209.122349 L239.116299,199.757913 L226.378557,199.757913 Z M249.729369,199.757913 L249.729369,209.122349 L262.467184,209.122349 L262.467184,199.757913 L249.729369,199.757913 Z M273.505277,199.757913 L273.505277,209.122349 L286.242909,209.122349 L286.242909,199.757913 L273.505277,199.757913 Z M296.855979,199.757913 L296.855979,209.122349 L309.593794,209.122349 L309.593794,199.757913 L296.855979,199.757913 Z M320.208885,199.757913 L320.208885,209.122349 L332.944496,209.122349 L332.944496,199.757913 L320.208885,199.757913 Z M108.333561,143.115563 L105.801665,147.888481 L99.8704535,147.159955 L95.2662155,155.84481 L99.2392566,160.261392 L96.771996,164.915538 L79.5908233,144.900905 L82.0494879,140.262596 L108.333561,143.115563 Z M95.4758797,146.621465 L85.8480568,145.32924 L92.332918,152.549108 L95.4758797,146.621465 Z M110.10431,141.279103 L91.0303363,125.79408 L94.0648751,122.037651 L113.12522,124.549364 L100.38746,114.209467 L103.285565,110.62221 L122.360274,126.106516 L119.227341,129.98389 L100.561951,127.592385 L113.00315,137.689692 L110.10431,141.279103 Z M125.954909,122.029733 L110.179708,103.179898 L113.872003,100.072095 L132.103701,106.18331 L121.568233,93.5966081 L125.095387,90.6299142 L140.872718,109.477576 L137.059786,112.685442 L119.195032,106.767154 L129.482044,119.060148 L125.954909,122.029733 Z M164.477699,95.5417677 L159.761438,98.1636536 L155.18161,94.3150611 L146.602163,99.0822334 L147.536368,104.957322 L142.938595,107.512253 L139.400678,81.3446601 L143.982655,78.798365 L164.477699,95.5417677 Z M151.788759,91.4621124 L144.416365,85.1219523 L145.932928,94.718924 L151.788759,91.4621124 Z M169.137223,67.2929519 L173.922416,66.0093635 L177.361957,78.8797195 C177.907672,80.9206336 178.322721,82.2322855 178.599904,82.8060388 C179.065922,83.7239189 179.766034,84.373263 180.688024,84.7526532 C181.620796,85.1385252 182.752468,85.1485978 184.087358,84.7885611 C185.447375,84.4235709 186.397375,83.8721173 186.940941,83.1277553 C187.480209,82.3891386 187.712869,81.5907675 187.633154,80.7463237 C187.559868,79.8932436 187.269112,78.5319099 186.764301,76.6500955 L183.250813,63.5025855 L188.03384,62.2168426 L191.372139,74.6998903 C192.135435,77.5564482 192.546884,79.6052805 192.601453,80.8521508 C192.658943,82.1011755 192.449187,83.2170095 191.970991,84.2191167 C191.492758,85.2132873 190.729463,86.1131766 189.699032,86.9050659 C188.66287,87.6983916 187.203761,88.3455812 185.326738,88.8495074 C183.063392,89.4578244 181.280429,89.6593875 179.967818,89.4477334 C178.656622,89.2375339 177.553676,88.8027167 176.65178,88.1519178 C175.749884,87.4968101 175.066285,86.7373299 174.606016,85.8763132 C173.928165,84.6006614 173.236668,82.6317473 172.525775,79.9702707 L169.137223,67.2921417 L169.137223,67.2929519 Z M199.721791,84.6482624 L198.009928,60.1018845 L202.819532,59.7649762 L213.98403,75.4537172 L212.842292,59.0630592 L217.436483,58.7405509 L219.148346,83.2876653 L214.183647,83.6346463 L203.198673,68.3173588 L204.315982,84.3243177 L199.721791,84.6482624 Z M224.287554,83.4913829 L224.715515,58.8895779 L229.66945,58.9752045 L229.240038,83.5770279 L224.287554,83.4914013 L224.287554,83.4913829 Z M240.092895,84.9750981 L235.714834,59.2156771 L241.011267,60.1522661 L243.966771,79.1676826 L253.041018,62.278862 L258.218981,63.1952874 L245.301716,85.8951327 L240.092895,84.9750981 Z M256.356339,88.0461828 L264.347642,64.7805024 L281.549662,70.7189542 L280.197635,74.657519 L267.678025,70.3352366 L265.90667,75.4918717 L277.555847,79.5146636 L276.21227,83.4301921 L264.561623,79.4081184 L262.38747,85.7425148 L275.349184,90.2152421 L274.002116,94.1379706 L256.356339,88.0461828 Z M278.030462,95.669913 L289.927416,74.1471109 L299.054744,79.2202371 C301.348286,80.4937345 302.905661,81.6160503 303.729991,82.5792849 C304.556525,83.542501 305.012589,84.6936169 305.091569,86.028305 C305.168712,87.3666024 304.85316,88.6645909 304.151524,89.9380882 C303.257581,91.5521032 302.044779,92.6254554 300.518078,93.1538727 C298.993765,93.6743534 297.20643,93.5519718 295.172787,92.7766369 C295.807566,93.8500075 296.249303,94.882351 296.49561,95.8765216 C296.741734,96.872147 296.919163,98.4904709 297.02698,100.739448 L297.330593,106.395682 L292.148406,103.516806 L291.60473,97.0881101 C291.417382,94.7966876 291.238483,93.3216087 291.069135,92.6578646 C290.900155,91.9948387 290.629603,91.4585032 290.261336,91.0359315 C289.88866,90.6212594 289.208514,90.1382151 288.209693,89.5831707 L287.334485,89.0972353 L282.367564,98.0801446 L278.030462,95.669913 Z M289.235147,85.6590059 L292.436958,87.4378658 C294.519458,88.5954635 295.862852,89.2318623 296.481834,89.3463257 C297.092184,89.4564434 297.665983,89.3750521 298.201577,89.1094808 C298.726518,88.8380721 299.174684,88.3852641 299.533032,87.7380744 C299.933626,87.0117033 300.059994,86.3241863 299.921504,85.6625967 C299.781911,85.0038981 299.394358,84.4200537 298.755355,83.9074912 C298.429333,83.6692099 297.389553,83.0565656 295.631055,82.0796676 L292.253835,80.2021806 L289.235147,85.6590059 Z M303.589296,101.14762 L307.588989,103.891888 C306.766679,105.322312 306.453698,106.614536 306.646739,107.77357 C306.839965,108.922532 307.510009,109.987266 308.666055,110.959119 C309.885285,111.987135 311.027005,112.505461 312.081112,112.50187 C313.135954,112.505553 313.953855,112.162789 314.536287,111.468808 C314.908962,111.021764 315.094106,110.534392 315.091902,110.001666 C315.091902,109.466767 314.870023,108.812396 314.409919,108.036343 C314.098223,107.505771 313.312648,106.379846 312.061091,104.654977 C310.448982,102.436972 309.542733,100.614894 309.341793,99.1880605 C309.052322,97.1802553 309.532814,95.4316317 310.782902,93.9378438 C311.586477,92.9782185 312.608257,92.3115833 313.851916,91.9293205 C315.091902,91.5521032 316.408847,91.5744214 317.796874,91.9941389 C319.18288,92.4231925 320.595887,93.2374 322.042873,94.4532974 C324.403823,96.4431118 325.745197,98.448744 326.073423,100.491813 C326.392832,102.532009 325.863667,104.442623 324.473436,106.227965 L320.536376,103.201516 C321.186216,102.095755 321.420217,101.103739 321.238563,100.23265 C321.062236,99.3572512 320.437192,98.4717804 319.368024,97.5733458 C318.267264,96.6453931 317.212422,96.1407487 316.209376,96.0759487 C315.563761,96.0254935 315.034595,96.247386 314.627389,96.7325112 C314.251224,97.1795556 314.121183,97.7223729 314.233224,98.3529896 C314.372817,99.1592789 315.183188,100.558767 316.66746,102.548563 C318.148794,104.540532 319.134023,106.142301 319.630862,107.352453 C320.119252,108.56476 320.279967,109.78283 320.103456,111.01961 C319.923455,112.249925 319.335697,113.460078 318.34055,114.650066 C317.436504,115.7292 316.290377,116.49229 314.904554,116.929261 C313.514323,117.366233 312.083316,117.357597 310.607676,116.893354 C309.127812,116.434064 307.568785,115.514029 305.936654,114.140468 C303.560643,112.142754 302.193371,110.057204 301.842921,107.883835 C301.491185,105.710449 302.072697,103.463644 303.589296,101.149904 L303.589296,101.14762 Z M316.54899,123.265794 L333.903827,105.867283 L337.40668,109.379667 L320.052394,126.778178 L316.54899,123.265794 Z M326.486323,134.636598 L342.104151,121.497007 L337.424497,115.907709 L340.608491,113.230414 L353.142979,128.206466 L349.961188,130.88376 L345.29384,125.306708 L329.673807,138.4463 L326.486323,134.636598 Z M338.928973,152.888189 L348.049689,148.027435 L356.379321,133.379655 L359.106517,138.524045 L353.246387,148.208835 L364.474032,148.647979 L367.156779,153.700224 L350.341761,152.416654 L341.249698,157.265162 L338.928973,152.888189 Z M221.747998,255.385746 L221.580725,253.971666 C221.388503,252.346667 220.993387,251.14473 220.350029,250.292586 C219.423147,249.339926 218.010881,248.973065 215.976668,249.026806 C212.889599,249.108362 211.24159,249.526217 201.061197,252.500849 C196.542174,253.821273 193.478273,254.617075 190.326981,255.217442 C188.728916,255.521896 187.203465,255.751211 185.733044,255.902136 L168.949678,308.173881 C175.473702,307.370866 181.331316,305.93602 187.817696,303.780236 C189.038186,303.3746 190.238655,302.959503 191.788581,302.411552 C192.232495,302.254613 192.732912,302.076966 193.65228,301.750501 C194.389625,301.488973 194.925867,301.299954 195.444966,301.119169 C198.268551,300.135806 200.217552,299.534111 202.068823,299.113223 C206.80223,298.037078 210.533538,298.336323 214.153779,300.392337 C216.713231,301.845905 219.184193,304.18948 221.747998,307.621785 L221.747998,255.385746 Z M225.178385,253.766617 L225.178385,307.540034 C228.816556,301.93232 232.879719,299.319428 238.066083,298.985794 C240.866649,298.805636 243.936915,299.26519 248.087354,300.358705 C250.304846,300.942947 258.956834,303.550203 260.266094,303.923821 C266.557122,305.719063 272.101097,306.967004 278.002245,307.770857 L261.582505,256.396746 C260.906682,256.323189 260.238096,256.238322 259.572997,256.141775 C256.243997,255.869194 252.889514,255.02924 248.725338,253.564529 C247.911201,253.308291 247.076863,253.035244 246.217198,252.744878 C246.169204,252.728668 240.219578,250.658823 238.72452,250.192324 C236.275778,249.428249 234.444895,249.031406 232.868476,248.959491 C229.638472,248.812142 227.353886,250.072627 225.283467,253.554681 C225.248303,253.624518 225.213277,253.695162 225.178385,253.766617 Z M183.442445,252.630275 L183.646042,252.451985 L184.205069,252.405127 C185.887834,252.264077 187.662396,251.997111 189.562058,251.60891 C192.493745,251.009812 195.376951,250.217918 199.694284,248.890743 C210.270185,245.639645 212.099599,245.157701 215.704214,245.110874 C218.897459,245.069392 221.338447,246.013765 222.934798,248.016525 C223.287979,248.401745 223.601984,248.833668 223.875717,249.313136 C226.161547,246.295396 229.072287,244.92529 232.671011,245.003135 C236.045841,245.076137 237.373446,245.514146 246.372816,249.004712 C247.671744,249.508525 248.883322,249.958931 250.026019,250.357703 C253.537192,251.451618 256.641529,252.211188 259.797871,252.686243 C260.883855,252.778728 261.958475,252.802921 263.055404,252.762053 L263.728493,252.736975 L264.238647,253.180432 C264.737259,253.613856 265.148044,253.928674 266.093316,254.620677 C266.237969,254.726571 266.237969,254.726571 266.384385,254.834041 C267.151325,255.397732 267.65629,255.790338 268.186796,256.252243 L268.538247,256.558246 L268.688609,257.001235 C271.411543,265.02341 273.569912,271.426441 278.501727,286.090483 C279.391455,288.735956 279.784205,289.903645 280.281154,291.380783 C283.632026,301.340973 285.93282,308.160013 288.248871,314.983319 L289,317.196217 L286.681662,317.27199 C277.356873,317.576761 268.917492,316.256306 257.399166,313.314952 C240.583207,309.020778 241.023803,309.116842 237.274625,309.490019 C232.771513,309.938239 230.552452,312.828569 230.019303,320.18529 L229.905228,321.759359 L228.3403,321.788463 C226.987134,321.81363 225.90455,321.834282 223.469937,321.881115 L223.431532,321.881854 C221.155483,321.925637 220.111195,321.945571 218.829581,321.969483 L217.193964,322 L217.08637,320.354013 C216.672542,314.023228 214.028051,311.341033 208.639207,310.867065 C204.201345,310.476738 200.624125,311.110829 187.595878,314.115377 C183.025712,315.16934 180.077027,315.798086 177.003163,316.334557 C170.480575,317.472923 165.03646,317.831721 160.10587,317.262121 L158,317.018844 L158.67527,314.992859 C159.930068,311.22814 161.217011,307.366755 162.550479,303.365573 C166.005496,292.998508 169.350476,282.96046 174.551587,267.351475 C176.093758,262.723276 176.123524,262.633946 177.607323,258.180921 L177.607323,257.675385 L178.19684,257.158317 C178.978042,256.47312 179.556088,255.975337 180.725285,254.976122 C181.862535,254.004212 182.393089,253.548151 183.085458,252.942796 L183.179398,252.650221 L183.442445,252.630275 Z M270.701675,273.676989 L282.893481,311.822734 L280.264311,311.528447 C273.13394,310.730333 266.721284,309.352891 259.334028,307.244823 C257.97391,306.856692 249.370566,304.264095 247.222056,303.698028 C243.394286,302.689527 240.646522,302.278244 238.284005,302.430222 C233.060699,302.766233 229.235306,306.084787 225.296511,314.456184 L223.938789,317.341845 L222.289247,314.615173 C218.702699,308.686655 215.562679,305.153688 212.474064,303.399596 C209.673385,301.809029 206.790467,301.577824 202.821666,302.480135 C201.121859,302.866587 199.275901,303.436471 196.562388,304.3815 C196.05061,304.559736 195.519808,304.746837 194.788056,305.006381 C193.870405,305.332237 193.367426,305.510793 192.921062,305.668598 C191.352593,306.223105 190.133411,306.644672 188.889174,307.058201 C181.326481,309.571703 174.552023,311.143985 166.668812,311.893425 L164.078576,312.139673 L181.067682,259.227153 C180.978543,259.304624 180.889749,259.381967 180.799802,259.46048 C179.374192,263.738874 179.324699,263.887407 177.803332,268.453171 C172.602204,284.062207 169.257209,294.100301 165.802169,304.467435 C164.714073,307.732358 163.656954,310.9042 162.623001,314.006396 C166.644289,314.231089 171.140093,313.847354 176.418126,312.926197 C179.416947,312.402823 182.316194,311.784618 186.831068,310.743406 C200.330056,307.630297 203.973269,306.984508 208.937292,307.421112 C215.502596,307.998555 219.405488,311.527501 220.346276,318.481293 C221.127742,318.466452 222.03674,318.449019 223.366103,318.423447 L223.404508,318.422708 C224.905145,318.393841 225.892333,318.374917 226.745876,318.35875 C227.661192,310.520269 230.974594,306.641249 236.937645,306.047713 C241.313018,305.612207 240.597711,305.456248 258.241318,309.961772 C268.492348,312.579505 276.182534,313.87141 284.240766,313.855402 C282.16905,307.743917 280.017131,301.363283 277.032601,292.492013 C276.535605,291.014737 276.142816,289.846929 275.253068,287.201399 C273.404921,281.7062 271.946362,277.371431 270.701675,273.676989 Z M263.886921,291.897674 C264.015963,291.938861 264.144207,291.980059 264.271618,292.02125 C265.169594,292.311555 265.832932,292.538063 266.201991,292.669654 L265.058386,295.930813 C264.719871,295.810113 264.088309,295.594456 263.224309,295.315135 C261.779712,294.848113 260.222918,294.379575 258.615208,293.940845 L259.472058,290.748283 C258.781457,290.543786 258.07534,290.342431 257.359125,290.14699 L258.255226,286.808058 C259.917171,287.261571 261.523724,287.745051 263.015905,288.22741 C263.913969,288.517716 264.577377,288.744223 264.946476,288.87581 L263.886921,291.897674 Z M254.109117,289.309099 C254.765921,289.441113 255.439025,289.587106 256.127089,289.746244 L255.36018,293.11773 C252.934744,292.556765 250.724187,292.171844 248.819434,292.003005 L249.11983,288.557257 C250.496416,288.679279 251.99459,288.900316 253.594196,289.207835 C251.368904,288.709784 249.33474,288.366158 247.564677,288.209087 L247.865397,284.763368 C249.946448,284.948035 252.305429,285.358938 254.872675,285.95278 L254.109117,289.309099 Z M183.936619,291.897602 L182.877095,288.875808 C183.246194,288.744221 183.909604,288.517714 184.807669,288.227408 C186.299852,287.745049 187.906402,287.26157 189.56834,286.808057 L190.464444,290.146988 C189.748305,290.342409 189.04226,290.543744 188.351727,290.748222 L189.208527,293.940829 C187.600691,294.379562 186.043748,294.848103 184.598994,295.315127 C183.734898,295.59445 183.103258,295.81011 182.764696,295.930811 L181.621215,292.669607 C181.990313,292.538019 182.653721,292.311513 183.551783,292.02121 C183.67924,291.980009 183.807531,291.9388 183.936619,291.897602 Z M193.71445,289.309171 L192.950868,285.952779 C195.518093,285.358938 197.877039,284.948034 199.95804,284.763367 L200.258768,288.209086 C198.488105,288.366213 196.453134,288.710032 194.226912,289.208378 C195.82692,288.900707 197.325446,288.679535 198.702314,288.557402 L199.00292,292.003131 C197.098124,292.172093 194.887492,292.557106 192.461962,293.118129 L191.695006,289.746654 C192.383585,289.587386 193.05718,289.44128 193.71445,289.309171 Z M187.18314,261.23916 C187.55224,261.107573 188.215652,260.881068 189.113719,260.590762 C190.605907,260.108405 192.212465,259.624926 193.874415,259.171414 L194.770512,262.510347 C193.162661,262.949097 191.605702,263.417649 190.160932,263.884679 C189.296825,264.164006 188.665176,264.379667 188.326607,264.500369 L187.18314,261.23916 Z M197.256974,258.316139 C199.824225,257.722298 202.183206,257.311395 204.264253,257.126728 L204.564975,260.572447 C202.660172,260.741475 200.449526,261.12654 198.023975,261.687603 L197.256974,258.316139 Z M208.018705,257.075455 C209.290206,257.182112 210.381069,257.438167 211.28591,257.878161 C212.68231,258.558623 213.853718,259.000616 214.815819,259.240459 L213.992522,262.598397 C212.785044,262.297383 211.393172,261.772205 209.794573,260.993211 C209.315238,260.760127 208.619611,260.596845 207.73432,260.522584 L208.018705,257.075455 Z M187.221631,265.293024 C187.590565,265.159074 188.252911,264.928865 189.148614,264.634315 C190.636857,264.144908 192.237332,263.65546 193.890707,263.197852 L194.797819,266.530287 C193.200168,266.972473 191.650695,267.446324 190.211188,267.919704 C189.350241,268.202825 188.720369,268.421746 188.382635,268.544368 L187.221631,265.293024 Z M197.296424,262.327011 C199.876675,261.72589 202.236996,261.319143 204.306248,261.152829 L204.578552,264.597591 C202.69883,264.748672 200.496788,265.128143 198.067893,265.694003 L197.296424,262.327011 Z M208.131446,261.170572 C209.207034,261.296987 210.143682,261.544257 210.936579,261.937795 C212.499225,262.71289 213.770091,263.175547 214.767729,263.381397 L214.08069,266.766931 C212.775539,266.49763 211.233731,265.936336 209.423504,265.038438 C209.017658,264.837004 208.449649,264.687054 207.734681,264.603022 L208.131446,261.170572 Z M187.041973,270.186248 C187.405641,270.050881 188.056631,269.818938 188.936104,269.52251 C190.396733,269.030201 191.966997,268.538141 193.588883,268.078377 C193.876094,267.99696 194.162924,267.917153 194.449173,267.839069 L195.442637,271.542096 C195.168582,271.616854 194.89379,271.693311 194.618479,271.771355 C193.059888,272.213176 191.547505,272.687098 190.14216,273.160773 C189.302047,273.443935 188.687807,273.662784 188.359438,273.785012 L187.041973,270.186248 Z M198.252145,266.90243 C201.341523,266.232017 204.040064,265.887841 206.252016,265.954023 L206.139181,269.78847 C204.287999,269.733083 201.867996,270.041733 199.052551,270.652702 L198.252145,266.90243 Z M210.752456,267.025534 C212.653706,267.956947 214.022011,268.351764 214.907969,268.375507 C215.196224,268.383232 215.180549,268.388363 215.016565,268.524983 L217.43975,271.482283 C216.04991,272.640207 213.360545,272.568133 209.089973,270.476001 L210.752456,267.025534 Z M187.015027,274.938818 C187.368359,274.803023 188.000087,274.570625 188.853239,274.273716 C190.269896,273.7807 191.792833,273.287942 193.365943,272.827487 C193.735939,272.719189 194.105185,272.613761 194.47324,272.511465 L195.489934,276.230791 C195.138794,276.328386 194.786169,276.429068 194.432545,276.532575 C192.924636,276.973944 191.461271,277.447427 190.101488,277.920651 C189.288776,278.203486 188.694786,278.422001 188.377688,278.54387 L187.015027,274.938818 Z M198.299469,271.559273 C201.521422,270.86187 204.281796,270.554377 206.482627,270.744611 L206.155849,274.588544 C204.408038,274.437467 201.985574,274.707319 199.102484,275.331374 L198.299469,271.559273 Z M210.769253,272.117028 C212.294304,272.824826 213.391264,273.114258 214.098821,273.1197 C214.311104,273.121332 214.278067,273.132286 214.12589,273.254353 L216.507782,276.273595 C215.195218,277.326449 212.803127,277.308052 209.169538,275.62165 L210.769253,272.117028 Z M184.851546,279.844273 C185.220645,279.712686 185.884055,279.48618 186.782118,279.195874 C188.274299,278.713515 189.880845,278.230035 191.542778,277.776523 L192.438885,281.115453 C190.831051,281.554203 189.274102,282.022757 187.829337,282.489788 C186.965233,282.769116 186.333585,282.984778 185.995016,283.105481 L184.851546,279.844273 Z M194.925292,276.921245 C197.492504,276.327403 199.851433,275.9165 201.932414,275.731832 L202.233145,279.177551 C200.328411,279.346578 198.117817,279.731643 195.692306,280.292707 L194.925292,276.921245 Z M205.686731,275.680563 C206.958022,275.787209 208.048715,276.04322 208.953431,276.483129 C210.350337,277.164028 211.521739,277.606068 212.483745,277.845807 L211.660709,281.20381 C210.453084,280.90286 209.061024,280.377554 207.461958,279.598113 C206.982921,279.365187 206.287437,279.201941 205.402327,279.12769 L205.686731,275.680563 Z M184.132762,284.178727 C184.50186,284.04714 185.165267,283.820634 186.063328,283.530332 C187.555504,283.047979 189.162053,282.564511 190.823995,282.111015 L191.720065,285.449956 C190.112231,285.888687 188.555289,286.357227 187.110537,286.824249 C186.246442,287.103572 185.614803,287.319231 185.276241,287.439932 L184.132762,284.178727 Z M194.206543,281.255781 C196.773792,280.661979 199.132779,280.251129 201.213844,280.06653 L201.514451,283.51226 C199.609656,283.681222 197.399026,284.066234 194.973498,284.627257 L194.206543,281.255781 Z M204.968353,280.01542 C206.239877,280.122149 207.330767,280.378287 208.235632,280.818374 C209.63187,281.498636 210.803377,281.940703 211.765621,282.180749 L210.941784,285.538552 C209.734454,285.237366 208.342731,284.7122 206.74429,283.933422 C206.264712,283.700176 205.569077,283.536843 204.683784,283.462534 L204.968353,280.01542 Z M203.7124,284.712097 C204.983789,284.81875 206.074558,285.074786 206.979327,285.514742 C208.375919,286.195249 209.547405,286.637253 210.509542,286.8771 L209.686263,290.235042 C208.478769,289.934031 207.086845,289.408855 205.488036,288.629815 C205.008725,288.396744 204.313186,288.233481 203.428001,288.159225 L203.7124,284.712097 Z M202.456826,288.506295 C203.728352,288.613025 204.819243,288.869165 205.724108,289.309255 C207.120438,289.989307 208.292025,290.431068 209.254129,290.670669 L208.431621,294.028803 C207.224097,293.728084 205.832008,293.203179 204.232989,292.424412 C203.753181,292.191052 203.057547,292.027718 202.172254,291.953408 L202.456826,288.506295 Z M259.496631,264.500369 C259.15806,264.379666 258.526408,264.164005 257.6623,263.884677 C256.217528,263.417647 254.660572,262.949095 253.052731,262.510345 L253.948833,259.171413 C255.610772,259.624925 257.217325,260.108403 258.709512,260.590761 C259.607579,260.881066 260.270992,261.107571 260.640093,261.239158 L259.496631,264.500369 Z M249.799298,261.6876 C247.373778,261.126537 245.163179,260.741473 243.258443,260.572445 L243.559175,257.126726 C245.640156,257.311394 247.999089,257.722298 250.566308,258.316138 L249.799298,261.6876 Z M240.089262,260.522582 C239.204157,260.596831 238.508678,260.760076 238.028165,260.993721 C236.430643,261.77243 235.038607,262.297751 233.830988,262.598728 L233.007877,259.240744 C233.969895,259.000979 235.141287,258.558924 236.536673,257.878746 C237.442883,257.438109 238.533573,257.182099 239.804862,257.075454 L240.089262,260.522582 Z M259.535532,268.544438 C259.19773,268.421779 258.567737,268.202798 257.706637,267.919607 C256.266873,267.446111 254.717151,266.972163 253.119278,266.529912 L254.026396,263.197478 C255.680014,263.655158 257.280758,264.144709 258.769275,264.634239 C259.665143,264.928864 260.32762,265.159137 260.696632,265.293128 L259.535532,268.544438 Z M249.851092,265.694084 C247.422042,265.128148 245.219874,264.748653 243.340082,264.597615 L243.612297,261.152846 C245.681675,261.319117 248.042165,261.725895 250.622612,262.327104 L249.851092,265.694084 Z M240.183635,264.603249 C239.469217,264.687308 238.901591,264.837211 238.496317,265.038349 C236.685187,265.936732 235.142805,266.49811 233.837098,266.767303 L233.150605,263.381656 C234.148586,263.175906 235.419821,262.713217 236.983253,261.937701 C237.775443,261.544536 238.711551,261.297322 239.786436,261.170849 L240.183635,264.603249 Z M259.355092,273.785012 C259.026721,273.662783 258.412483,273.443933 257.572383,273.16077 C256.16706,272.687094 254.654719,272.213171 253.096194,271.771349 C252.820345,271.693149 252.545018,271.616542 252.270432,271.541642 L253.263868,267.838608 C253.550672,267.916841 253.83806,267.996804 254.125833,268.078384 C255.747645,268.538146 257.317859,269.030206 258.778459,269.522513 C259.657912,269.81894 260.308894,270.050882 260.672559,270.186249 L259.355092,273.785012 Z M248.662384,270.652696 C245.846882,270.041668 243.426984,269.733021 241.576159,269.788488 L241.463142,265.954046 C243.674852,265.887764 246.373343,266.231945 249.462849,266.902437 L248.662384,270.652696 Z M238.624539,270.47708 C234.355102,272.56765 231.666776,272.640105 230.277094,271.482418 L232.700148,268.52501 C232.53618,268.388414 232.520428,268.383262 232.808586,268.375496 C233.69417,268.351628 235.062018,267.956985 236.962704,267.026296 L238.624539,270.47708 Z M259.327909,278.54387 C259.010795,278.421999 258.416786,278.203483 257.604058,277.920646 C256.244251,277.44742 254.780882,276.973936 253.272995,276.532564 C252.919376,276.429057 252.566759,276.328375 252.215627,276.23078 L253.232347,272.511461 C253.60039,272.613757 253.969627,272.719184 254.339615,272.827483 C255.912691,273.287936 257.435621,273.780692 258.852291,274.273706 C259.70545,274.570614 260.33719,274.803009 260.690529,274.938803 L259.327909,278.54387 Z M248.603229,275.331361 C245.720078,274.707254 243.297761,274.437415 241.550431,274.588574 L241.223385,270.744665 C243.423891,270.554302 246.184181,270.86179 249.406293,271.559271 L248.603229,275.331361 Z M238.536307,275.622202 C234.905676,277.306296 232.514699,277.326385 231.200555,276.27618 L233.577014,273.252588 C233.425947,273.131862 233.394469,273.121475 233.608267,273.119679 C234.316448,273.113729 235.413287,272.824175 236.937325,272.117239 L238.536307,275.622202 Z M261.828,283.105342 C261.489486,282.984642 260.85793,282.768983 259.993939,282.489657 C258.54936,282.022628 256.992588,281.554078 255.384906,281.11533 L256.281087,277.77642 C257.942882,278.229936 259.549266,278.713418 261.041274,279.19578 C261.939235,279.486089 262.602563,279.712597 262.971616,279.844187 L261.828,283.105342 Z M252.12994,280.292171 C249.704555,279.731165 247.494057,279.346192 245.589371,279.177288 L245.889892,275.731551 C247.970888,275.91609 250.329778,276.326907 252.896916,276.9207 L252.12994,280.292171 Z M242.420279,279.127688 C241.535279,279.202019 240.839798,279.365326 240.359138,279.599042 C238.761762,280.377647 237.369485,280.902974 236.16175,281.203876 L235.338906,277.845826 C236.300971,277.606131 237.472528,277.164086 238.867673,276.484054 C239.773855,276.043431 240.864447,275.787348 242.135531,275.680589 L242.420279,279.127688 Z M262.546999,287.439932 C262.208434,287.319231 261.57679,287.103572 260.71269,286.824249 C259.26793,286.357226 257.71098,285.888686 256.103139,285.449955 L256.999205,282.111014 C258.661154,282.564509 260.26771,283.047977 261.759894,283.53033 C262.65796,283.820632 263.321371,284.047137 263.690471,284.178725 L262.546999,287.439932 Z M252.849694,284.627256 C250.424158,284.066233 248.213523,283.681221 246.30873,283.512259 L246.609338,280.066529 C248.6904,280.251127 251.049391,280.661978 253.616646,281.25578 L252.849694,284.627256 Z M243.139408,283.462533 C242.254124,283.536842 241.558501,283.700174 241.077877,283.933932 C239.480593,284.712431 238.088811,285.237729 236.881462,285.538876 L236.057741,282.181044 C237.019785,281.941083 238.191169,281.498969 239.586305,280.818996 C240.492432,280.378287 241.583317,280.122148 242.854838,280.015419 L243.139408,283.462533 Z M244.39532,288.159227 C243.51002,288.233489 242.814382,288.396774 242.333752,288.630486 C240.73641,289.4091 239.344405,289.934404 238.136852,290.235372 L237.313723,286.877393 C238.275691,286.637634 239.44706,286.195592 240.84224,285.515521 C241.748557,285.074812 242.839427,284.818756 244.110933,284.712098 L244.39532,288.159227 Z M245.651492,291.953434 C244.766184,292.027735 244.070391,292.191037 243.589417,292.424795 C241.991437,293.203147 240.599372,293.728089 239.391766,294.028827 L238.569262,290.670692 C239.531387,290.431088 240.702904,289.989313 242.098662,289.309462 C243.004905,288.869016 244.095691,288.61301 245.366959,288.506317 L245.651492,291.953434 Z M429.202226,374.797357 L7.79553248,374.797357 L7.79553248,431.199812 L429.202226,431.199812 L429.202226,374.797357 Z M19,418.505338 L19,390.476067 L24.2431489,390.476067 C26.1966814,390.476067 27.4732383,390.614113 28.0727829,390.879948 C29.0323331,391.31098 29.8212085,392.23737 30.4451326,393.647707 C31.0690567,395.063748 31.3824679,396.883671 31.3824679,399.116031 C31.3824679,401.146807 31.109946,402.842341 30.5735056,404.211923 C30.0363497,405.584375 29.361502,406.542231 28.5547043,407.097633 C27.7514837,407.653036 26.3630636,407.932529 24.3894442,407.932529 L22.2523226,407.932529 L22.2523226,418.505338 L19,418.505338 Z M22.2523226,395.219585 L22.2523226,403.169026 L24.0559644,403.169026 C25.2651062,403.169026 26.0869646,403.051092 26.5237041,402.810179 C26.9547202,402.569284 27.3125795,402.131102 27.5872661,401.499217 C27.867676,400.865175 28.0053679,400.094603 28.0053679,399.175363 C28.0053679,398.248955 27.8633835,397.459094 27.5786443,396.826477 C27.2882,396.185999 26.9360825,395.762828 26.5136698,395.539815 C26.0905417,395.325359 25.2019837,395.219585 23.8379615,395.219585 L22.2523226,395.219585 Z M34.0660643,418.505338 L34.0660643,390.476067 L40.9328613,390.476067 C42.6891933,390.476067 43.9456449,390.729834 44.7001066,391.234497 C45.4516882,391.734864 46.0698705,392.609783 46.5518102,393.849985 C47.0373271,395.09591 47.2775632,396.583443 47.2775632,398.31401 C47.2775632,400.506328 46.9096696,402.275493 46.1717177,403.612199 C45.4273087,404.949619 44.3766611,405.792376 43.0205085,406.131201 C43.7175894,406.850302 44.2949008,407.626597 44.7488656,408.47579 C45.2078566,409.322131 45.8317807,410.843965 46.6206562,413.036301 L48.5806458,418.505338 L44.7001066,418.505338 L42.331334,412.404416 C41.483647,410.204218 40.9041893,408.819625 40.5972352,408.267075 C40.2945921,407.711655 39.9690003,407.332805 39.629797,407.117655 C39.2905755,406.908922 38.7433853,406.803842 37.9910883,406.803842 L37.3162406,406.803842 L37.3162406,418.505338 L34.0660643,418.505338 Z M37.3162406,402.327676 L39.7395139,402.327676 C41.2175822,402.327676 42.1563484,402.236804 42.5615358,402.05248 C42.9660078,401.870186 43.2908842,401.499217 43.5433192,400.938092 C43.7907462,400.376236 43.9191192,399.624972 43.9191192,398.698565 C43.9191192,397.80505 43.7907095,397.088107 43.5433192,396.544845 C43.2908842,396.003723 42.9516626,395.63131 42.5206648,395.4283 C42.2173063,395.284585 41.33161,395.219585 39.8736286,395.219585 L37.3162406,395.219585 L37.3162406,402.327676 Z M49.6987085,404.664403 C49.6987085,401.322646 50.0422227,398.574908 50.7414498,396.415466 C51.432789,394.255292 52.3414339,392.642677 53.4616245,391.58475 C54.5796873,390.528963 55.9379861,390 57.5358055,390 C59.8472157,390 61.7276097,391.252361 63.1870219,393.764927 C64.6407107,396.277493 65.3700591,399.853708 65.3700591,404.493573 C65.3700591,409.178454 64.5998215,412.846163 63.058649,415.484543 C61.7046611,417.820557 59.8694489,418.981405 57.5480044,418.981405 C55.2079222,418.981405 53.3641066,417.826261 52.0122466,415.522428 C50.4689279,412.886901 49.6987085,409.263512 49.6987085,404.664403 Z M53.0571525,404.473552 C53.0571525,407.697357 53.4881687,410.112724 54.34589,411.725339 C55.2079222,413.336528 56.2728967,414.144985 57.5480044,414.144985 C58.8281385,414.144985 59.8873712,413.342251 60.732912,411.743916 C61.5770036,410.144886 61.9936745,407.691634 61.9936745,404.376335 C61.9936745,401.126072 61.5848916,398.725022 60.7637486,397.165303 C59.9483291,395.612714 58.8754666,394.835012 57.5480044,394.835012 C56.2219731,394.835012 55.1405072,395.619151 54.3093116,397.185306 C53.4759697,398.757897 53.0571525,401.185405 53.0571525,404.473552 Z M75.4353752,408.199881 L75.4353752,403.474958 L82.4628127,403.474958 L82.4628127,414.641054 C81.7571284,415.82836 80.7509655,416.847688 79.45434,417.703318 C78.1548345,418.558234 76.8539164,418.981405 75.5407995,418.981405 C73.9487034,418.981405 72.5402148,418.426716 71.3246158,417.31017 C70.1047426,416.195782 69.1372861,414.523834 68.42586,412.299336 C67.7144522,410.074107 67.3565746,407.462185 67.3565746,404.455688 C67.3565746,401.36768 67.7180294,398.731458 68.4402052,396.539122 C69.1595193,394.346787 70.09469,392.707001 71.2471665,391.625488 C72.3982121,390.541122 73.780175,390 75.380159,390 C77.3071658,390 78.8526308,390.696959 80.0129953,392.095118 C81.1740753,393.491157 81.9177688,395.534092 82.2469561,398.241093 L79.0233239,399.292583 C78.7830695,397.850084 78.3398728,396.747855 77.6915509,395.98372 C77.0511353,395.219585 76.2787513,394.835012 75.380159,394.835012 C73.9960316,394.835012 72.8657883,395.604852 72.0073515,397.138846 C71.1453376,398.672839 70.7186324,401.014575 70.7186324,404.16762 C70.7186324,407.541538 71.1826314,410.112724 72.1134912,411.867591 C72.9124193,413.389425 73.9960316,414.144985 75.3536149,414.144985 C75.9897379,414.144985 76.6509558,413.929816 77.3401487,413.506645 C78.0228844,413.074899 78.6324633,412.49591 79.1739301,411.758214 L79.1739301,408.199881 L75.4353752,408.199881 Z M85.4877952,418.505338 L85.4877952,390.476067 L92.3545923,390.476067 C94.1109059,390.476067 95.3673759,390.729834 96.1218192,391.234497 C96.8741162,391.734864 97.4916015,392.609783 97.9735229,393.849985 C98.4597551,395.09591 98.6992941,396.583443 98.6992941,398.31401 C98.6992941,400.506328 98.3313822,402.275493 97.5934303,403.612199 C96.8497368,404.949619 95.798392,405.792376 94.4429549,406.131201 C95.1378895,406.850302 95.7173472,407.626597 96.1705965,408.47579 C96.6302847,409.322131 97.2542088,410.843965 98.0430842,413.036301 L100.002377,418.505338 L96.1218192,418.505338 L93.7537621,412.404416 C92.906075,410.204218 92.3266173,408.819625 92.0196816,408.267075 C91.716323,407.711655 91.3914466,407.332805 91.0515096,407.117655 C90.7122881,406.908922 90.1650979,406.803842 89.4135163,406.803842 L88.7386686,406.803842 L88.7386686,418.505338 L85.4877952,418.505338 Z M88.7386686,402.327676 L91.1612265,402.327676 C92.6392948,402.327676 93.5787764,402.236804 93.9832484,402.05248 C94.3855742,401.870186 94.7133306,401.499217 94.9650502,400.938092 C95.2131743,400.376236 95.3408318,399.624972 95.3408318,398.698565 C95.3408318,397.80505 95.2131559,397.088107 94.9650502,396.544845 C94.7133306,396.003723 94.3733936,395.63131 93.9402312,395.4283 C93.6397343,395.284585 92.7533226,395.219585 91.2939104,395.219585 L88.7386686,395.219585 L88.7386686,402.327676 Z M101.777328,418.505338 L101.777328,390.476067 L113.769669,390.476067 L113.769669,395.219585 L105.029651,395.219585 L105.029651,401.434162 L113.149322,401.434162 L113.149322,406.151223 L105.029651,406.151223 L105.029651,413.780433 L114.06226,413.780433 L114.06226,418.505338 L101.777328,418.505338 Z M115.999319,409.387187 L119.182778,408.846064 C119.540637,412.428716 120.713916,414.223607 122.706191,414.223607 C123.687975,414.223607 124.462505,413.859056 125.027617,413.121359 C125.596325,412.390118 125.875304,411.482305 125.875304,410.400079 C125.875304,409.760313 125.779914,409.219191 125.582714,408.775304 C125.385495,408.325676 125.082136,407.958986 124.677646,407.670918 C124.27532,407.385702 123.301425,406.908922 121.750218,406.230558 C120.361798,405.628696 119.343418,404.982494 118.700856,404.279117 C118.052534,403.580037 117.540492,402.660066 117.160399,401.517081 C116.778142,400.376236 116.590976,399.148906 116.590976,397.837944 C116.590976,396.309673 116.832643,394.934369 117.318893,393.706308 C117.810849,392.486127 118.485697,391.558293 119.343418,390.932131 C120.20545,390.312386 121.264701,390 122.531187,390 C124.429522,390 125.911883,390.729834 126.976857,392.198772 C128.046143,393.661274 128.609109,395.762828 128.668636,398.48985 L125.407728,398.737181 C125.261341,397.229627 124.954479,396.180294 124.47685,395.580552 C124.002798,394.984395 123.323658,394.684899 122.447996,394.684899 C121.571637,394.684899 120.892497,394.94651 120.420591,395.469037 C119.942963,395.989425 119.705588,396.63634 119.705588,397.420496 C119.705588,398.182474 119.920729,398.822239 120.351746,399.34548 C120.782762,399.87373 121.774598,400.441291 123.320063,401.067471 C124.962367,401.74653 126.14568,402.457769 126.875028,403.201188 C127.605092,403.944589 128.164481,404.911021 128.550316,406.08688 C128.934701,407.26775 129.127627,408.696664 129.127627,410.380058 C129.127627,412.814001 128.601221,414.856223 127.550592,416.513873 C126.494936,418.17081 124.846193,419 122.608655,419 C118.649933,419 116.442516,415.796198 115.999319,409.387187 Z M131.051038,409.387187 L134.234515,408.846064 C134.592374,412.428716 135.767084,414.223607 137.757195,414.223607 C138.738978,414.223607 139.513509,413.859056 140.078639,413.121359 C140.648063,412.390118 140.927042,411.482305 140.927042,410.400079 C140.927042,409.760313 140.830918,409.219191 140.633718,408.775304 C140.436499,408.325676 140.133855,407.958986 139.729383,407.670918 C139.327058,407.385702 138.353144,406.908922 136.804084,406.230558 C135.413517,405.628696 134.395155,404.982494 133.752575,404.279117 C133.106418,403.580037 132.591495,402.660066 132.211403,401.517081 C131.829164,400.376236 131.642695,399.148906 131.642695,397.837944 C131.642695,396.309673 131.886526,394.934369 132.372043,393.706308 C132.861871,392.486127 133.537434,391.558293 134.395155,390.932131 C135.257169,390.312386 136.31642,390 137.582925,390 C139.481241,390 140.963602,390.729834 142.028595,392.198772 C143.09788,393.661274 143.660846,395.762828 143.721804,398.48985 L140.459447,398.737181 C140.31251,397.229627 140.005483,396.180294 139.527854,395.580552 C139.056682,394.984395 138.375377,394.684899 137.499018,394.684899 C136.623374,394.684899 135.944216,394.94651 135.472329,395.469037 C134.9947,395.989425 134.75661,396.63634 134.75661,397.420496 C134.75661,398.182474 134.972467,398.822239 135.403483,399.34548 C135.834499,399.87373 136.826317,400.441291 138.371085,401.067471 C140.014086,401.74653 141.197399,402.457769 141.926748,403.201188 C142.65683,403.944589 143.215485,404.911021 143.602035,406.08688 C143.986438,407.26775 144.179346,408.696664 144.179346,410.380058 C144.179346,412.814001 143.652958,414.856223 142.601595,416.513873 C141.546655,418.17081 139.900058,419 137.661805,419 C133.70167,419 131.4964,415.796198 131.051038,409.387187 Z M156.835767,418.505338 L156.835767,395.219585 L152.038695,395.219585 L152.038695,390.476067 L164.874394,390.476067 L164.874394,395.219585 L160.088805,395.219585 L160.088805,418.505338 L156.835767,418.505338 Z M166.998619,418.505338 L166.998619,390.476067 L170.250942,390.476067 L170.250942,401.50494 L176.65086,401.50494 L176.65086,390.476067 L179.915381,390.476067 L179.915381,418.505338 L176.65086,418.505338 L176.65086,406.24844 L170.250942,406.24844 L170.250942,418.505338 L166.998619,418.505338 Z M183.28817,418.505338 L183.28817,390.476067 L190.154968,390.476067 C191.913446,390.476067 193.169897,390.729834 193.922194,391.234497 C194.67451,391.734864 195.294123,392.609783 195.776063,393.849985 C196.262295,395.09591 196.499669,396.583443 196.499669,398.31401 C196.499669,400.506328 196.133922,402.275493 195.393806,403.612199 C194.652277,404.949619 193.600914,405.792376 192.242615,406.131201 C192.940411,406.850302 193.517722,407.626597 193.973118,408.47579 C194.432109,409.322131 195.054602,410.843965 195.844909,413.036301 L197.802752,418.505338 L193.922194,418.505338 L191.555586,412.404416 C190.706469,410.204218 190.128423,408.819625 189.820057,408.267075 C189.518845,407.711655 189.191822,407.332805 188.851885,407.117655 C188.512682,406.908922 187.967638,406.803842 187.215341,406.803842 L186.540493,406.803842 L186.540493,418.505338 L183.28817,418.505338 Z M186.540493,402.327676 L188.963766,402.327676 C190.439688,402.327676 191.381316,402.236804 191.783642,402.05248 C192.188114,401.870186 192.513706,401.499217 192.765425,400.938092 C193.013568,400.376236 193.141225,399.624972 193.141225,398.698565 C193.141225,397.80505 193.013549,397.088107 192.765425,396.544845 C192.513706,396.003723 192.173769,395.63131 191.742753,395.4283 C191.44011,395.284585 190.555862,395.219585 189.095716,395.219585 L186.540493,395.219585 L186.540493,402.327676 Z M198.922943,404.664403 C198.922943,401.322646 199.266475,398.574908 199.963556,396.415466 C200.657041,394.255292 201.565686,392.642677 202.683731,391.58475 C203.80394,390.528963 205.162239,390 206.757912,390 C209.071468,390 210.951862,391.252361 212.409128,393.764927 C213.864963,396.277493 214.594312,399.853708 214.594312,404.493573 C214.594312,409.178454 213.821928,412.846163 212.281471,415.484543 C210.927464,417.820557 209.093701,418.981405 206.772257,418.981405 C204.432156,418.981405 202.588341,417.826261 201.234353,415.522428 C199.69318,412.886901 198.922943,409.263512 198.922943,404.664403 Z M202.281405,404.473552 C202.281405,407.697357 202.712421,410.112724 203.570142,411.725339 C204.432156,413.336528 205.497149,414.144985 206.772257,414.144985 C208.053106,414.144985 209.111624,413.342251 209.955715,411.743916 C210.799091,410.144886 211.215762,407.691634 211.215762,404.376335 C211.215762,401.126072 210.809144,398.725022 209.988001,397.165303 C209.171151,395.612714 208.097554,394.835012 206.772257,394.835012 C205.446941,394.835012 204.36331,395.619151 203.533564,397.185306 C202.698076,398.757897 202.281405,401.185405 202.281405,404.473552 Z M217.107233,390.476067 L220.359537,390.476067 L220.359537,405.655135 C220.359537,408.017605 220.395492,409.55158 220.480059,410.262819 C220.622043,411.503021 220.965576,412.455155 221.506327,413.133518 C222.04706,413.806872 222.764925,414.144985 223.649191,414.144985 C224.401488,414.144985 225.017524,413.90409 225.493006,413.42731 C225.966324,412.951243 226.291916,412.285038 226.466902,411.437984 C226.639704,410.595208 226.727243,408.775304 226.727243,405.981088 L226.727243,390.476067 L229.993892,390.476067 L229.993892,405.199089 C229.993892,408.95758 229.851174,411.678879 229.570764,413.350827 C229.288208,415.02634 228.654231,416.383781 227.663844,417.421686 C226.672008,418.46674 225.364633,418.981405 223.744562,418.981405 C222.063552,418.981405 220.746124,418.549659 219.800919,417.68902 C218.855695,416.83339 218.172244,415.620359 217.745539,414.062066 C217.318834,412.501615 217.10727,409.622358 217.10727,405.427825 L217.107233,390.476067 Z M240.949087,408.199881 L240.949087,403.474958 L247.97658,403.474958 L247.97658,414.641054 C247.271611,415.82836 246.264696,416.847688 244.968125,417.703318 C243.669354,418.558234 242.366363,418.981405 241.054567,418.981405 C239.463204,418.981405 238.054,418.426716 236.838328,417.31017 C235.61862,416.195782 234.651145,414.523834 233.939572,412.299336 C233.228183,410.074107 232.87047,407.462185 232.87047,404.455688 C232.87047,401.36768 233.231851,398.731458 233.954064,396.539122 C234.673341,394.346787 235.60853,392.707001 236.760915,391.625488 C237.912016,390.541122 239.292603,390 240.893871,390 C242.820933,390 244.366435,390.696959 245.526707,392.095118 C246.687897,393.491157 247.431573,395.534092 247.761402,398.241093 L244.537036,399.292583 C244.29691,397.850084 243.852246,396.747855 243.205428,395.98372 C242.562829,395.219585 241.792555,394.835012 240.893871,394.835012 C239.507597,394.835012 238.37961,395.604852 237.521834,397.138846 C236.659838,398.672839 236.232418,401.014575 236.232418,404.16762 C236.232418,407.541538 236.696343,410.112724 237.627313,411.867591 C238.426205,413.389425 239.507597,414.144985 240.865988,414.144985 C241.504184,414.144985 242.16476,413.929816 242.851751,413.506645 C243.536725,413.074899 244.147037,412.49591 244.687642,411.758214 L244.687642,408.199881 L240.949087,408.199881 Z M250.999526,418.505338 L250.999526,390.476067 L254.252509,390.476067 L254.252509,401.50494 L260.651712,401.50494 L260.651712,390.476067 L263.918269,390.476067 L263.918269,418.505338 L260.651712,418.505338 L260.651712,406.24844 L254.252509,406.24844 L254.252509,418.505338 L250.999526,418.505338 Z M273.593569,418.505338 L273.593569,390.476067 L276.848019,390.476067 L276.848019,402.921695 L283.448641,390.476067 L287.843553,390.476067 L281.755469,401.393425 L288.16476,418.505338 L283.942835,418.505338 L279.494358,405.349203 L276.848019,410.03337 L276.848019,418.505338 L273.593569,418.505338 Z M289.884532,418.505338 L289.884532,390.476067 L293.060103,390.476067 L299.669347,409.192752 L299.669347,390.476067 L302.705868,390.476067 L302.705868,418.505338 L299.427019,418.505338 L292.921604,400.226853 L292.921604,418.505338 L289.884532,418.505338 Z M305.491256,404.664403 C305.491256,401.322646 305.834844,398.574908 306.531925,396.415466 C307.225337,394.255292 308.13411,392.642677 309.252008,391.58475 C310.37229,390.528963 311.729947,390 313.326262,390 C315.639103,390 317.520304,391.252361 318.97757,393.764927 C320.433369,396.277493 321.162735,399.853708 321.162735,404.493573 C321.162735,409.178454 320.392461,412.846163 318.849161,415.484543 C317.49719,417.820557 315.662033,418.981405 313.340571,418.981405 C311.00058,418.981405 309.156801,417.826261 307.80263,415.522428 C306.261531,412.886901 305.491256,409.263512 305.491256,404.664403 Z M308.849719,404.473552 C308.849719,407.697357 309.280808,410.112724 310.138585,411.725339 C311.00058,413.336528 312.065463,414.144985 313.340571,414.144985 C314.620815,414.144985 315.680011,413.342251 316.524029,411.743916 C317.367497,410.144886 317.786296,407.691634 317.786296,404.376335 C317.786296,401.126072 317.377586,398.725022 316.556315,397.165303 C315.738712,395.612714 314.665941,394.835012 313.340571,394.835012 C312.014649,394.835012 310.930872,395.619151 310.101896,397.185306 C309.2665,398.757897 308.849719,401.185405 308.849719,404.473552 Z M325.982683,418.505338 L322.130761,390.476067 L325.474914,390.476067 L327.891767,409.727438 L330.851426,390.476067 L334.736368,390.476067 L337.572019,410.054104 L340.058397,390.476067 L343.337979,390.476067 L339.41213,418.505338 L335.943969,418.505338 L332.717585,397.549875 L329.519635,418.505338 L325.982683,418.505338 Z M345.099943,418.505338 L345.099943,390.705534 L348.353109,390.705534 L348.353109,413.780433 L356.468415,413.780433 L356.468415,418.505338 L345.099943,418.505338 Z M358.807855,418.505338 L358.807855,390.476067 L370.798013,390.476067 L370.798013,395.219585 L362.060838,395.219585 L362.060838,401.434162 L370.179812,401.434162 L370.179812,406.151223 L362.060838,406.151223 L362.060838,413.780433 L371.092621,413.780433 L371.092621,418.505338 L358.807855,418.505338 Z M373.835084,390.476067 L379.785404,390.476067 C381.291465,390.476067 382.428074,390.717675 383.194679,391.193742 C383.960735,391.669809 384.666437,392.478265 385.308852,393.614813 C385.95512,394.743518 386.461421,396.218892 386.831424,398.025942 C387.199409,399.83941 387.382301,402.084642 387.382301,404.773779 C387.382301,407.201287 387.18932,409.304267 386.805008,411.097732 C386.418312,412.886901 385.928521,414.30296 385.336919,415.352293 C384.745318,416.398079 384.033745,417.180078 383.194679,417.709041 C382.35488,418.238004 381.281376,418.505338 379.960408,418.505338 L373.835084,418.505338 L373.835084,390.476067 Z M377.083848,395.219585 L377.083848,413.780433 L379.532987,413.780433 C380.580076,413.780433 381.340261,413.642387 381.807855,413.362967 C382.28187,413.081335 382.66765,412.657452 382.964459,412.090603 C383.267873,411.523042 383.515337,410.627389 383.712537,409.401485 C383.909738,408.181999 384.005861,406.56867 384.005861,404.565046 C384.005861,402.489949 383.906803,400.853015 383.704649,399.651412 C383.501762,398.457688 383.19046,397.511277 382.763773,396.826477 C382.336353,396.133815 381.822164,395.683493 381.212585,395.469037 C380.752878,395.298993 379.872906,395.219585 378.565512,395.219585 L377.083848,395.219585 Z M397.662777,408.199881 L397.662777,403.474958 L404.692287,403.474958 L404.692287,414.641054 C403.985117,415.82836 402.980403,416.847688 401.681631,417.703318 C400.384327,418.558234 399.081336,418.981405 397.768073,418.981405 C396.17671,418.981405 394.769708,418.426716 393.554035,417.31017 C392.332126,416.195782 391.364651,414.523834 390.653261,412.299336 C389.941872,410.074107 389.585994,407.462185 389.585994,404.455688 C389.585994,401.36768 389.947559,398.731458 390.66757,396.539122 C391.389049,394.346787 392.324238,392.707001 393.474421,391.625488 C394.627723,390.541122 396.007576,390 397.607561,390 C399.534439,390 401.082142,390.696959 402.242415,392.095118 C403.403605,393.491157 404.145079,395.534092 404.477109,398.241093 L401.250725,399.292583 C401.012617,397.850084 400.567219,396.747855 399.921135,395.98372 C399.278537,395.219585 398.508262,394.835012 397.607561,394.835012 C396.223305,394.835012 395.095318,395.604852 394.236808,397.138846 C393.375546,398.672839 392.948125,401.014575 392.948125,404.16762 C392.948125,407.541538 393.412051,410.112724 394.343021,411.867591 C395.139711,413.389425 396.223305,414.144985 397.580961,414.144985 C398.217873,414.144985 398.878266,413.929816 399.567459,413.506645 C400.250231,413.074899 400.860544,412.49591 401.403349,411.758214 L401.403349,408.199881 L397.662777,408.199881 Z M407.71505,418.505338 L407.71505,390.476067 L419.707409,390.476067 L419.707409,395.219585 L410.968216,395.219585 L410.968216,401.434162 L419.087191,401.434162 L419.087191,406.151223 L410.968216,406.151223 L410.968216,413.780433 L420,413.780433 L420,418.505338 L407.71505,418.505338 Z" id="Combined-Shape-Copy-2" fill="#FFFFFF"></path>
    </g>
</svg>